{"buffers":[{"uri":"scene.bin","byteLength":38564}],"asset":{"version":"2.0","generator":"gltfpack 0.19","extras":{"author":"Gert-Jan van den Boom (https://sketchfab.com/alphafluff)","license":"CC-BY-SA-4.0 (http://creativecommons.org/licenses/by-sa/4.0/)","source":"https://sketchfab.com/3d-models/ferret-075a4acad5e4495dba628ffdc875f265","title":"Ferret"}},"extensionsUsed":["KHR_mesh_quantization","KHR_texture_transform"],"extensionsRequired":["KHR_mesh_quantization"],"bufferViews":[{"buffer":0,"byteOffset":0,"byteLength":6128,"byteStride":4,"target":34962},{"buffer":0,"byteOffset":6128,"byteLength":12256,"byteStride":8,"target":34962},{"buffer":0,"byteOffset":18384,"byteLength":6128,"byteStride":4,"target":34962},{"buffer":0,"byteOffset":24512,"byteLength":14052,"target":34963}],"accessors":[{"bufferView":0,"byteOffset":0,"componentType":5120,"count":1532,"type":"VEC3","normalized":true},{"bufferView":1,"byteOffset":0,"componentType":5123,"count":1532,"type":"VEC3","min":[0,0,0],"max":[3895,7200,16383]},{"bufferView":2,"byteOffset":0,"componentType":5123,"count":1532,"type":"VEC2","normalized":true},{"bufferView":3,"byteOffset":0,"componentType":5123,"count":7026,"type":"SCALAR"}],"samplers":[{"magFilter":9729,"minFilter":9987}],"images":[{"uri":"textures/Ferret_material_baseColor.png"}],"textures":[{"sampler":0,"source":0}],"materials":[{"name":"Ferret_material","pbrMetallicRoughness":{"baseColorTexture":{"index":0,"extensions":{"KHR_texture_transform":{"offset":[0.0121542774,0.010375917],"scale":[15.7805157,15.7689543]}}},"metallicFactor":0},"doubleSided":true}],"meshes":[{"primitives":[{"attributes":{"NORMAL":0,"POSITION":1,"TEXCOORD_0":2},"indices":3,"material":0}]}],"nodes":[{"mesh":0,"translation":[-7.04128599,0.215506554,-35.6607666],"scale":[0.00361506408,0.00361506408,0.00361506408]}],"scenes":[{"name":"Sketchfab_Scene","nodes":[0]}],"scene":0}