{
  "accessors": [
    {
      "bufferView": 2,
      "componentType": 5126,
      "count": 1628,
      "max": [
        7.858715534210205,
        34.97035598754883,
        18.151512145996094
      ],
      "min": [
        -7.858715534210205,
        -32.04529571533203,
        -10.852095603942871
      ],
      "type": "VEC3"
    },
    {
      "bufferView": 2,
      "byteOffset": 19536,
      "componentType": 5126,
      "count": 1628,
      "max": [
        0.9999029040336609,
        0.9997850060462952,
        0.9989514350891113
      ],
      "min": [
        -0.9996306300163269,
        -0.9987000823020935,
        -0.999971330165863
      ],
      "type": "VEC3"
    },
    {
      "bufferView": 1,
      "componentType": 5126,
      "count": 1628,
      "max": [
        0.9982107281684875,
        0.9957099556922913
      ],
      "min": [
        0.01215427741408348,
        0.010375916957855225
      ],
      "type": "VEC2"
    },
    {
      "bufferView": 1,
      "byteOffset": 13024,
      "componentType": 5126,
      "count": 1628,
      "max": [
        0.8695460557937622,
        0.9392722845077515
      ],
      "min": [
        0.1865426003932953,
        0.1247706413269043
      ],
      "type": "VEC2"
    },
    {
      "bufferView": 1,
      "byteOffset": 26048,
      "componentType": 5126,
      "count": 1628,
      "max": [
        0.9090094566345215,
        0.6270667910575867
      ],
      "min": [
        0.0375434048473835,
        0.19705432653427124
      ],
      "type": "VEC2"
    },
    {
      "bufferView": 1,
      "byteOffset": 39072,
      "componentType": 5126,
      "count": 1628,
      "max": [
        1.080850601196289,
        0.9957099556922913
      ],
      "min": [
        0.01215427741408348,
        -1.0876076221466064
      ],
      "type": "VEC2"
    },
    {
      "bufferView": 1,
      "byteOffset": 52096,
      "componentType": 5126,
      "count": 1628,
      "max": [
        0.9647720456123352,
        0.908526599407196
      ],
      "min": [
        0.11484238505363464,
        -1.550110936164856
      ],
      "type": "VEC2"
    },
    {
      "bufferView": 1,
      "byteOffset": 65120,
      "componentType": 5126,
      "count": 1628,
      "max": [
        0.9982107281684875,
        0.9957099556922913
      ],
      "min": [
        0.01215427741408348,
        0.010375916957855225
      ],
      "type": "VEC2"
    },
    {
      "bufferView": 1,
      "byteOffset": 78144,
      "componentType": 5126,
      "count": 1628,
      "max": [
        0.7859595417976379,
        0.9069674015045166
      ],
      "min": [
        0.330157071352005,
        -0.20117853581905365
      ],
      "type": "VEC2"
    },
    {
      "bufferView": 0,
      "componentType": 5125,
      "count": 7026,
      "type": "SCALAR"
    }
  ],
  "asset": {
    "extras": {
      "author": "Gert-Jan van den Boom (https://sketchfab.com/alphafluff)",
      "license": "CC-BY-SA-4.0 (http://creativecommons.org/licenses/by-sa/4.0/)",
      "source": "https://sketchfab.com/3d-models/ferret-075a4acad5e4495dba628ffdc875f265",
      "title": "Ferret"
    },
    "generator": "Sketchfab-13.31.0",
    "version": "2.0"
  },
  "bufferViews": [
    {
      "buffer": 0,
      "byteLength": 28104,
      "name": "floatBufferViews",
      "target": 34963
    },
    {
      "buffer": 0,
      "byteLength": 91168,
      "byteOffset": 28104,
      "byteStride": 8,
      "name": "floatBufferViews",
      "target": 34962
    },
    {
      "buffer": 0,
      "byteLength": 39072,
      "byteOffset": 119272,
      "byteStride": 12,
      "name": "floatBufferViews",
      "target": 34962
    }
  ],
  "buffers": [
    {
      "byteLength": 158344,
      "uri": "scene.bin"
    }
  ],
  "images": [
    {
      "uri": "textures/Ferret_material_baseColor.png"
    }
  ],
  "materials": [
    {
      "doubleSided": true,
      "name": "Ferret_material",
      "pbrMetallicRoughness": {
        "baseColorTexture": {
          "index": 0
        },
        "metallicFactor": 0.0
      }
    }
  ],
  "meshes": [
    {
      "name": "Ferret_Ferret_material_0",
      "primitives": [
        {
          "attributes": {
            "NORMAL": 1,
            "POSITION": 0,
            "TEXCOORD_0": 2,
            "TEXCOORD_1": 3,
            "TEXCOORD_2": 4,
            "TEXCOORD_3": 5,
            "TEXCOORD_4": 6,
            "TEXCOORD_5": 7,
            "TEXCOORD_6": 8
          },
          "indices": 9,
          "material": 0,
          "mode": 4
        }
      ]
    }
  ],
  "nodes": [
    {
      "children": [
        1
      ],
      "matrix": [
        1.0,
        0.0,
        0.0,
        0.0,
        0.0,
        2.220446049250313e-16,
        -1.0,
        0.0,
        0.0,
        1.0,
        2.220446049250313e-16,
        0.0,
        0.0,
        0.0,
        0.0,
        1.0
      ],
      "name": "Sketchfab_model"
    },
    {
      "children": [
        2
      ],
      "matrix": [
        1.0,
        0.0,
        0.0,
        0.0,
        0.0,
        0.0,
        1.0,
        0.0,
        0.0,
        -1.0,
        0.0,
        0.0,
        0.0,
        0.0,
        0.0,
        1.0
      ],
      "name": "720acf91faa14469ad7b8ce8e291f713.fbx"
    },
    {
      "children": [
        3
      ],
      "name": "RootNode"
    },
    {
      "children": [
        4
      ],
      "matrix": [
        0.8959770202634652,
        4.1839833665744814e-08,
        6.071223680855779e-07,
        0.0,
        6.083563707076243e-07,
        -0.038322233867938586,
        -0.8951571560571678,
        0.0,
        -1.5834045759037238e-08,
        0.8951571560573736,
        -0.03832223386795828,
        0.0,
        -4.85115269839298e-05,
        9.160443305969238,
        -4.641579627990723,
        1.0
      ],
      "name": "Ferret"
    },
    {
      "mesh": 0,
      "name": "Ferret_Ferret_material_0"
    }
  ],
  "samplers": [
    {
      "magFilter": 9729,
      "minFilter": 9987,
      "wrapS": 10497,
      "wrapT": 10497
    }
  ],
  "scene": 0,
  "scenes": [
    {
      "name": "Sketchfab_Scene",
      "nodes": [
        0
      ]
    }
  ],
  "textures": [
    {
      "sampler": 0,
      "source": 0
    }
  ]
}
