{"buffers":[{"uri":"scene.bin","byteLength":166432}],"asset":{"version":"2.0","generator":"gltfpack 0.19","extras":{"author":"Coffeek (https://sketchfab.com/coffe0wolf)","license":"CC-BY-4.0 (http://creativecommons.org/licenses/by/4.0/)","source":"https://sketchfab.com/3d-models/cattroller-6df1f908bf504e7c84aed24b92d90aa7","title":"Cattroller"}},"extensionsUsed":["KHR_mesh_quantization","KHR_texture_transform","KHR_materials_unlit"],"extensionsRequired":["KHR_mesh_quantization"],"bufferViews":[{"buffer":0,"byteOffset":0,"byteLength":27092,"byteStride":4,"target":34962},{"buffer":0,"byteOffset":27092,"byteLength":54184,"byteStride":8,"target":34962},{"buffer":0,"byteOffset":81276,"byteLength":71088,"target":34963},{"buffer":0,"byteOffset":152364,"byteLength":14068,"byteStride":4,"target":34962}],"accessors":[{"bufferView":0,"byteOffset":0,"componentType":5120,"count":154,"type":"VEC3","normalized":true},{"bufferView":1,"byteOffset":0,"componentType":5123,"count":154,"type":"VEC3","min":[1334,26,3457],"max":[5277,9503,8045]},{"bufferView":2,"byteOffset":0,"componentType":5123,"count":876,"type":"SCALAR"},{"bufferView":0,"byteOffset":616,"componentType":5120,"count":3517,"type":"VEC3","normalized":true},{"bufferView":1,"byteOffset":1232,"componentType":5123,"count":3517,"type":"VEC3","min":[33,6756,32],"max":[4726,16351,10847]},{"bufferView":3,"byteOffset":0,"componentType":5123,"count":3517,"type":"VEC2","normalized":true},{"bufferView":2,"byteOffset":1752,"componentType":5123,"count":17466,"type":"SCALAR"},{"bufferView":0,"byteOffset":14684,"componentType":5120,"count":3102,"type":"VEC3","normalized":true},{"bufferView":1,"byteOffset":29368,"componentType":5123,"count":3102,"type":"VEC3","min":[0,0,0],"max":[5311,16383,10880]},{"bufferView":2,"byteOffset":36684,"componentType":5123,"count":17202,"type":"SCALAR"}],"samplers":[{"magFilter":9729,"minFilter":9987}],"images":[{"uri":"textures/cattroller_baseColor.png"}],"textures":[{"sampler":0,"source":0}],"materials":[{"name":"None","pbrMetallicRoughness":{"baseColorFactor":[0.277874768,0.251691997,0.251691997,1],"metallicFactor":0},"doubleSided":true,"extensions":{"KHR_materials_unlit":{}}},{"name":"cattroller","pbrMetallicRoughness":{"baseColorTexture":{"index":0,"extensions":{"KHR_texture_transform":{"offset":[0.000483999989,0.000483999989],"scale":[15.9881716,15.9127464]}}},"metallicFactor":0},"doubleSided":true,"extensions":{"KHR_materials_unlit":{}}},{"name":"outline","pbrMetallicRoughness":{"baseColorFactor":[0.166902751,0.0669138804,0.0669138804,1],"metallicFactor":0},"extensions":{"KHR_materials_unlit":{}}}],"meshes":[{"primitives":[{"attributes":{"NORMAL":0,"POSITION":1},"indices":2,"material":0},{"attributes":{"NORMAL":3,"POSITION":4,"TEXCOORD_0":5},"indices":6,"material":1},{"attributes":{"NORMAL":7,"POSITION":8},"indices":9,"material":2}]}],"nodes":[{"mesh":0,"translation":[-0.714069009,-3.77985811,-1.65931404],"scale":[0.000298819825,0.000298819825,0.000298819825]}],"scenes":[{"name":"Sketchfab_Scene","nodes":[0]}],"scene":0}