{"buffers":[{"uri":"scene.bin","byteLength":1244040}],"asset":{"version":"2.0","generator":"gltfpack 0.19"},"extensionsUsed":["KHR_mesh_quantization","KHR_texture_transform"],"extensionsRequired":["KHR_mesh_quantization"],"bufferViews":[{"buffer":0,"byteOffset":0,"byteLength":19238},{"buffer":0,"byteOffset":19240,"byteLength":12543},{"buffer":0,"byteOffset":31784,"byteLength":684695},{"buffer":0,"byteOffset":716480,"byteLength":605},{"buffer":0,"byteOffset":717088,"byteLength":28204},{"buffer":0,"byteOffset":745292,"byteLength":605},{"buffer":0,"byteOffset":745900,"byteLength":605},{"buffer":0,"byteOffset":746508,"byteLength":605},{"buffer":0,"byteOffset":747116,"byteLength":130167},{"buffer":0,"byteOffset":877284,"byteLength":7994},{"buffer":0,"byteOffset":885280,"byteLength":116944,"byteStride":8,"target":34962},{"buffer":0,"byteOffset":1002224,"byteLength":58472,"byteStride":4,"target":34962},{"buffer":0,"byteOffset":1060696,"byteLength":58472,"byteStride":4,"target":34962},{"buffer":0,"byteOffset":1119168,"byteLength":124872,"target":34963}],"accessors":[{"bufferView":10,"byteOffset":0,"componentType":5123,"count":711,"type":"VEC3","min":[0,0,0],"max":[10961,14262,8320]},{"bufferView":11,"byteOffset":0,"componentType":5123,"count":711,"type":"VEC2","normalized":true},{"bufferView":12,"byteOffset":0,"componentType":5120,"count":711,"type":"VEC3","normalized":true},{"bufferView":13,"byteOffset":0,"componentType":5123,"count":924,"type":"SCALAR"},{"bufferView":10,"byteOffset":5688,"componentType":5123,"count":6167,"type":"VEC3","min":[1894,1114,2548],"max":[8432,6618,7045]},{"bufferView":11,"byteOffset":2844,"componentType":5123,"count":6167,"type":"VEC2","normalized":true},{"bufferView":12,"byteOffset":2844,"componentType":5120,"count":6167,"type":"VEC3","normalized":true},{"bufferView":13,"byteOffset":1848,"componentType":5123,"count":30792,"type":"SCALAR"},{"bufferView":10,"byteOffset":55024,"componentType":5123,"count":594,"type":"VEC3","min":[426,258,489],"max":[10535,6437,7831]},{"bufferView":11,"byteOffset":27512,"componentType":5123,"count":594,"type":"VEC2","normalized":true},{"bufferView":12,"byteOffset":27512,"componentType":5120,"count":594,"type":"VEC3","normalized":true},{"bufferView":13,"byteOffset":63432,"componentType":5123,"count":864,"type":"SCALAR"},{"bufferView":10,"byteOffset":59776,"componentType":5123,"count":3078,"type":"VEC3","min":[7310,545,90],"max":[10926,9091,7855]},{"bufferView":11,"byteOffset":29888,"componentType":5123,"count":3078,"type":"VEC2","normalized":true},{"bufferView":12,"byteOffset":29888,"componentType":5120,"count":3078,"type":"VEC3","normalized":true},{"bufferView":13,"byteOffset":65160,"componentType":5123,"count":15552,"type":"SCALAR"},{"bufferView":10,"byteOffset":84400,"componentType":5123,"count":4068,"type":"VEC3","min":[331,676,689],"max":[10482,16383,9649]},{"bufferView":11,"byteOffset":42200,"componentType":5123,"count":4068,"type":"VEC2","normalized":true},{"bufferView":12,"byteOffset":42200,"componentType":5120,"count":4068,"type":"VEC3","normalized":true},{"bufferView":13,"byteOffset":96264,"componentType":5123,"count":14304,"type":"SCALAR"}],"samplers":[{"magFilter":9729,"minFilter":9987}],"images":[{"bufferView":0,"mimeType":"image/png"},{"bufferView":1,"mimeType":"image/png"},{"bufferView":2,"mimeType":"image/png"},{"bufferView":3,"mimeType":"image/png"},{"bufferView":4,"mimeType":"image/png"},{"bufferView":5,"mimeType":"image/png"},{"bufferView":6,"mimeType":"image/png"},{"bufferView":7,"mimeType":"image/png"},{"bufferView":8,"mimeType":"image/png"},{"bufferView":9,"mimeType":"image/png"}],"textures":[{"sampler":0,"source":0},{"sampler":0,"source":1},{"sampler":0,"source":2},{"sampler":0,"source":3},{"sampler":0,"source":4},{"sampler":0,"source":5},{"sampler":0,"source":6},{"sampler":0,"source":7},{"sampler":0,"source":8},{"sampler":0,"source":9}],"materials":[{"name":"Cajita","pbrMetallicRoughness":{"baseColorFactor":[0.779972196,0.779972196,0.779972196,0.293558359],"baseColorTexture":{"index":0,"extensions":{"KHR_texture_transform":{"offset":[0.0200014524,0.0199658871],"scale":[15.3632402,13.9772167]}}},"roughnessFactor":0.220596284,"metallicRoughnessTexture":{"index":1,"extensions":{"KHR_texture_transform":{"offset":[0.0200014524,0.0199658871],"scale":[15.3632402,13.9772167]}}}},"alphaMode":"BLEND","doubleSided":true},{"name":"Flores","pbrMetallicRoughness":{"baseColorTexture":{"index":2,"extensions":{"KHR_texture_transform":{"offset":[0.0199999996,0.0199999809],"scale":[15.2994509,15.3635159]}}},"metallicRoughnessTexture":{"index":3,"extensions":{"KHR_texture_transform":{"offset":[0.0199999996,0.0199999809],"scale":[15.2994509,15.3635159]}}}},"doubleSided":true},{"name":"Luiquido","pbrMetallicRoughness":{"baseColorFactor":[1,1,1,0.676609278],"baseColorTexture":{"index":4,"extensions":{"KHR_texture_transform":{"offset":[0.0198897533,0.0199343562],"scale":[15.3625174,12.4332609]}}},"metallicRoughnessTexture":{"index":5,"extensions":{"KHR_texture_transform":{"offset":[0.0198897533,0.0199343562],"scale":[15.3625174,12.4332609]}}}},"alphaMode":"BLEND","doubleSided":true},{"name":"Nubes","pbrMetallicRoughness":{"baseColorTexture":{"index":6,"extensions":{"KHR_texture_transform":{"offset":[0.0209106058,0.0209135413],"scale":[7.54539776,15.3342199]}}},"metallicRoughnessTexture":{"index":7,"extensions":{"KHR_texture_transform":{"offset":[0.0209106058,0.0209135413],"scale":[7.54539776,15.3342199]}}}},"doubleSided":true},{"name":"Extras","pbrMetallicRoughness":{"baseColorTexture":{"index":8,"extensions":{"KHR_texture_transform":{"offset":[0.0199999996,0.0199999809],"scale":[14.9624834,15.3635159]}}},"metallicRoughnessTexture":{"index":9,"extensions":{"KHR_texture_transform":{"offset":[0.0199999996,0.0199999809],"scale":[14.9624834,15.3635159]}}}},"doubleSided":true}],"meshes":[{"primitives":[{"attributes":{"POSITION":0,"TEXCOORD_0":1,"NORMAL":2},"indices":3,"material":0},{"attributes":{"POSITION":4,"TEXCOORD_0":5,"NORMAL":6},"indices":7,"material":1},{"attributes":{"POSITION":8,"TEXCOORD_0":9,"NORMAL":10},"indices":11,"material":2},{"attributes":{"POSITION":12,"TEXCOORD_0":13,"NORMAL":14},"indices":15,"material":3},{"attributes":{"POSITION":16,"TEXCOORD_0":17,"NORMAL":18},"indices":19,"material":4}]}],"nodes":[{"mesh":0,"translation":[-37.5279808,0.983937562,-13.8803911],"scale":[0.00588754145,0.00588754145,0.00588754145]}],"scenes":[{"name":"Scene","nodes":[0]}],"scene":0}