{
    "asset" : {
        "generator" : "Khronos glTF Blender I/O v3.4.50",
        "version" : "2.0"
    },
    "scene" : 0,
    "scenes" : [
        {
            "name" : "Scene",
            "nodes" : [
                16
            ]
        }
    ],
    "nodes" : [
        {
            "mesh" : 0,
            "name" : "Cajita_Cajita_0"
        },
        {
            "children" : [
                0
            ],
            "name" : "Cajita",
            "rotation" : [
                -0.70710688829422,
                0,
                0,
                0.7071066498756409
            ],
            "translation" : [
                -5.259669303894043,
                0,
                10.613083839416504
            ]
        },
        {
            "mesh" : 1,
            "name" : "Flores_Flores_0",
            "translation" : [
                -3.814697265625e-06,
                3.814698175119702e-06,
                0
            ]
        },
        {
            "children" : [
                2
            ],
            "name" : "Object_12",
            "translation" : [
                -56.989871978759766,
                57.385494232177734,
                0
            ]
        },
        {
            "children" : [
                3
            ],
            "name" : "Flores",
            "rotation" : [
                -0.70710688829422,
                0,
                0,
                0.7071066498756409
            ]
        },
        {
            "mesh" : 2,
            "name" : "L\ufffd\ufffdquido_Luiquido_0"
        },
        {
            "children" : [
                5
            ],
            "name" : "Object_6",
            "translation" : [
                -5.259669303894043,
                -10.613083839416504,
                0
            ]
        },
        {
            "children" : [
                6
            ],
            "name" : "L\ufffd\ufffdquido",
            "rotation" : [
                -0.70710688829422,
                0,
                0,
                0.7071066498756409
            ]
        },
        {
            "mesh" : 3,
            "name" : "Nube_Nubes_0",
            "translation" : [
                5.722047262679553e-06,
                0,
                0
            ]
        },
        {
            "children" : [
                8
            ],
            "name" : "Object_15",
            "translation" : [
                64.45022583007812,
                96.07872772216797,
                -0.2875710427761078
            ]
        },
        {
            "children" : [
                9
            ],
            "name" : "Nube",
            "rotation" : [
                0,
                -0.25881898403167725,
                0,
                0.9659258127212524
            ],
            "scale" : [
                0.6568360924720764,
                0.6568360328674316,
                0.7540267705917358
            ],
            "translation" : [
                0,
                -7.62939453125e-06,
                0
            ]
        },
        {
            "mesh" : 4,
            "name" : "Planetas_estrellas_Extras_0",
            "translation" : [
                -1.52587890625e-05,
                0,
                -1.7227554053533822e-05
            ]
        },
        {
            "children" : [
                11
            ],
            "name" : "Object_9",
            "translation" : [
                -143.3256072998047,
                -14.653067588806152,
                242.1012420654297
            ]
        },
        {
            "children" : [
                12
            ],
            "name" : "Planetas_estrellas",
            "rotation" : [
                -0.70710688829422,
                0,
                0,
                0.7071066498756409
            ]
        },
        {
            "children" : [
                1,
                4,
                7,
                10,
                13
            ],
            "name" : "RootNode"
        },
        {
            "children" : [
                14
            ],
            "name" : "a9144c09342c43b0886d108852c684c6.fbx",
            "rotation" : [
                0.70710688829422,
                0,
                0,
                0.7071066498756409
            ]
        },
        {
            "children" : [
                15
            ],
            "name" : "Sketchfab_model",
            "rotation" : [
                -0.70710688829422,
                0,
                0,
                0.7071066498756409
            ]
        }
    ],
    "materials" : [
        {
            "alphaMode" : "BLEND",
            "doubleSided" : true,
            "name" : "Cajita",
            "pbrMetallicRoughness" : {
                "baseColorFactor" : [
                    0.7799721956253052,
                    0.7799721956253052,
                    0.7799721956253052,
                    0.29355835914611816
                ],
                "baseColorTexture" : {
                    "index" : 0
                },
                "metallicRoughnessTexture" : {
                    "index" : 1
                },
                "roughnessFactor" : 0.2205962836742401
            }
        },
        {
            "doubleSided" : true,
            "name" : "Flores",
            "pbrMetallicRoughness" : {
                "baseColorTexture" : {
                    "index" : 2
                },
                "metallicRoughnessTexture" : {
                    "index" : 3
                }
            }
        },
        {
            "alphaMode" : "BLEND",
            "doubleSided" : true,
            "name" : "Luiquido",
            "pbrMetallicRoughness" : {
                "baseColorFactor" : [
                    1,
                    1,
                    1,
                    0.6766092777252197
                ],
                "baseColorTexture" : {
                    "index" : 4
                },
                "metallicRoughnessTexture" : {
                    "index" : 5
                }
            }
        },
        {
            "doubleSided" : true,
            "name" : "Nubes",
            "pbrMetallicRoughness" : {
                "baseColorTexture" : {
                    "index" : 6
                },
                "metallicRoughnessTexture" : {
                    "index" : 7
                }
            }
        },
        {
            "doubleSided" : true,
            "name" : "Extras",
            "pbrMetallicRoughness" : {
                "baseColorTexture" : {
                    "index" : 8
                },
                "metallicRoughnessTexture" : {
                    "index" : 9
                }
            }
        }
    ],
    "meshes" : [
        {
            "name" : "Cajita_Cajita_0",
            "primitives" : [
                {
                    "attributes" : {
                        "POSITION" : 0,
                        "TEXCOORD_0" : 1,
                        "TEXCOORD_1" : 2,
                        "TEXCOORD_2" : 3,
                        "TEXCOORD_3" : 4,
                        "NORMAL" : 5
                    },
                    "indices" : 6,
                    "material" : 0
                }
            ]
        },
        {
            "name" : "Flores_Flores_0",
            "primitives" : [
                {
                    "attributes" : {
                        "POSITION" : 7,
                        "TEXCOORD_0" : 8,
                        "TEXCOORD_1" : 9,
                        "TEXCOORD_2" : 10,
                        "NORMAL" : 11
                    },
                    "indices" : 12,
                    "material" : 1
                }
            ]
        },
        {
            "name" : "L\ufffd\ufffdquido_Luiquido_0",
            "primitives" : [
                {
                    "attributes" : {
                        "POSITION" : 13,
                        "TEXCOORD_0" : 14,
                        "TEXCOORD_1" : 15,
                        "TEXCOORD_2" : 16,
                        "TEXCOORD_3" : 17,
                        "NORMAL" : 18
                    },
                    "indices" : 19,
                    "material" : 2
                }
            ]
        },
        {
            "name" : "Nube_Nubes_0",
            "primitives" : [
                {
                    "attributes" : {
                        "POSITION" : 20,
                        "TEXCOORD_0" : 21,
                        "TEXCOORD_1" : 22,
                        "TEXCOORD_2" : 23,
                        "NORMAL" : 24
                    },
                    "indices" : 25,
                    "material" : 3
                }
            ]
        },
        {
            "name" : "Planetas_estrellas_Extras_0",
            "primitives" : [
                {
                    "attributes" : {
                        "POSITION" : 26,
                        "TEXCOORD_0" : 27,
                        "TEXCOORD_1" : 28,
                        "TEXCOORD_2" : 29,
                        "NORMAL" : 30
                    },
                    "indices" : 31,
                    "material" : 4
                }
            ]
        }
    ],
    "textures" : [
        {
            "sampler" : 0,
            "source" : 0
        },
        {
            "sampler" : 0,
            "source" : 1
        },
        {
            "sampler" : 0,
            "source" : 2
        },
        {
            "sampler" : 0,
            "source" : 3
        },
        {
            "sampler" : 0,
            "source" : 4
        },
        {
            "sampler" : 0,
            "source" : 5
        },
        {
            "sampler" : 0,
            "source" : 6
        },
        {
            "sampler" : 0,
            "source" : 7
        },
        {
            "sampler" : 0,
            "source" : 8
        },
        {
            "sampler" : 0,
            "source" : 9
        }
    ],
    "images" : [
        {
            "bufferView" : 7,
            "mimeType" : "image/png",
            "name" : "Cajita_baseColor"
        },
        {
            "bufferView" : 8,
            "mimeType" : "image/png",
            "name" : "Cajita_metallicRoughness"
        },
        {
            "bufferView" : 15,
            "mimeType" : "image/png",
            "name" : "Flores_baseColor"
        },
        {
            "bufferView" : 16,
            "mimeType" : "image/png",
            "name" : "Flores_metallicRoughness"
        },
        {
            "bufferView" : 24,
            "mimeType" : "image/png",
            "name" : "Luiquido_baseColor"
        },
        {
            "bufferView" : 25,
            "mimeType" : "image/png",
            "name" : "Luiquido_metallicRoughness"
        },
        {
            "bufferView" : 32,
            "mimeType" : "image/png",
            "name" : "Nubes_baseColor"
        },
        {
            "bufferView" : 33,
            "mimeType" : "image/png",
            "name" : "Nubes_metallicRoughness"
        },
        {
            "bufferView" : 40,
            "mimeType" : "image/png",
            "name" : "Extras_baseColor"
        },
        {
            "bufferView" : 41,
            "mimeType" : "image/png",
            "name" : "Extras_metallicRoughness"
        }
    ],
    "accessors" : [
        {
            "bufferView" : 0,
            "componentType" : 5126,
            "count" : 743,
            "max" : [
                32.267852783203125,
                24.493453979492188,
                84.95492553710938
            ],
            "min" : [
                -32.268310546875,
                -24.49345588684082,
                0.9839443564414978
            ],
            "type" : "VEC3"
        },
        {
            "bufferView" : 1,
            "componentType" : 5126,
            "count" : 743,
            "type" : "VEC2"
        },
        {
            "bufferView" : 2,
            "componentType" : 5126,
            "count" : 743,
            "type" : "VEC2"
        },
        {
            "bufferView" : 3,
            "componentType" : 5126,
            "count" : 743,
            "type" : "VEC2"
        },
        {
            "bufferView" : 4,
            "componentType" : 5126,
            "count" : 743,
            "type" : "VEC2"
        },
        {
            "bufferView" : 5,
            "componentType" : 5126,
            "count" : 743,
            "type" : "VEC3"
        },
        {
            "bufferView" : 6,
            "componentType" : 5123,
            "count" : 924,
            "type" : "SCALAR"
        },
        {
            "bufferView" : 9,
            "componentType" : 5126,
            "count" : 6167,
            "max" : [
                69.10563659667969,
                -58.506404876708984,
                39.948543548583984
            ],
            "min" : [
                30.613285064697266,
                -84.98172760009766,
                7.540360927581787
            ],
            "type" : "VEC3"
        },
        {
            "bufferView" : 10,
            "componentType" : 5126,
            "count" : 6167,
            "type" : "VEC2"
        },
        {
            "bufferView" : 11,
            "componentType" : 5126,
            "count" : 6167,
            "type" : "VEC2"
        },
        {
            "bufferView" : 12,
            "componentType" : 5126,
            "count" : 6167,
            "type" : "VEC2"
        },
        {
            "bufferView" : 13,
            "componentType" : 5126,
            "count" : 6167,
            "type" : "VEC3"
        },
        {
            "bufferView" : 14,
            "componentType" : 5123,
            "count" : 30792,
            "type" : "SCALAR"
        },
        {
            "bufferView" : 17,
            "componentType" : 5126,
            "count" : 597,
            "max" : [
                29.7589054107666,
                21.614686965942383,
                38.882354736328125
            ],
            "min" : [
                -29.758838653564453,
                -21.614784240722656,
                2.5042266845703125
            ],
            "type" : "VEC3"
        },
        {
            "bufferView" : 18,
            "componentType" : 5126,
            "count" : 597,
            "type" : "VEC2"
        },
        {
            "bufferView" : 19,
            "componentType" : 5126,
            "count" : 597,
            "type" : "VEC2"
        },
        {
            "bufferView" : 20,
            "componentType" : 5126,
            "count" : 597,
            "type" : "VEC2"
        },
        {
            "bufferView" : 21,
            "componentType" : 5126,
            "count" : 597,
            "type" : "VEC2"
        },
        {
            "bufferView" : 22,
            "componentType" : 5126,
            "count" : 597,
            "type" : "VEC3"
        },
        {
            "bufferView" : 23,
            "componentType" : 5123,
            "count" : 864,
            "type" : "SCALAR"
        },
        {
            "bufferView" : 26,
            "componentType" : 5126,
            "count" : 3078,
            "max" : [
                -24.585872650146484,
                -13.092613220214844,
                32.914093017578125
            ],
            "min" : [
                -50.37437438964844,
                -89.69534301757812,
                -31.259843826293945
            ],
            "type" : "VEC3"
        },
        {
            "bufferView" : 27,
            "componentType" : 5126,
            "count" : 3078,
            "type" : "VEC2"
        },
        {
            "bufferView" : 28,
            "componentType" : 5126,
            "count" : 3078,
            "type" : "VEC2"
        },
        {
            "bufferView" : 29,
            "componentType" : 5126,
            "count" : 3078,
            "type" : "VEC2"
        },
        {
            "bufferView" : 30,
            "componentType" : 5126,
            "count" : 3078,
            "type" : "VEC3"
        },
        {
            "bufferView" : 31,
            "componentType" : 5123,
            "count" : 15552,
            "type" : "SCALAR"
        },
        {
            "bufferView" : 34,
            "componentType" : 5126,
            "count" : 4068,
            "max" : [
                167.50985717773438,
                24.475788116455078,
                -144.66168212890625
            ],
            "min" : [
                107.74885559082031,
                -28.275428771972656,
                -237.134521484375
            ],
            "type" : "VEC3"
        },
        {
            "bufferView" : 35,
            "componentType" : 5126,
            "count" : 4068,
            "type" : "VEC2"
        },
        {
            "bufferView" : 36,
            "componentType" : 5126,
            "count" : 4068,
            "type" : "VEC2"
        },
        {
            "bufferView" : 37,
            "componentType" : 5126,
            "count" : 4068,
            "type" : "VEC2"
        },
        {
            "bufferView" : 38,
            "componentType" : 5126,
            "count" : 4068,
            "type" : "VEC3"
        },
        {
            "bufferView" : 39,
            "componentType" : 5123,
            "count" : 14304,
            "type" : "SCALAR"
        }
    ],
    "bufferViews" : [
        {
            "buffer" : 0,
            "byteLength" : 8916,
            "byteOffset" : 0,
            "target" : 34962
        },
        {
            "buffer" : 0,
            "byteLength" : 5944,
            "byteOffset" : 8916,
            "target" : 34962
        },
        {
            "buffer" : 0,
            "byteLength" : 5944,
            "byteOffset" : 14860,
            "target" : 34962
        },
        {
            "buffer" : 0,
            "byteLength" : 5944,
            "byteOffset" : 20804,
            "target" : 34962
        },
        {
            "buffer" : 0,
            "byteLength" : 5944,
            "byteOffset" : 26748,
            "target" : 34962
        },
        {
            "buffer" : 0,
            "byteLength" : 8916,
            "byteOffset" : 32692,
            "target" : 34962
        },
        {
            "buffer" : 0,
            "byteLength" : 1848,
            "byteOffset" : 41608,
            "target" : 34963
        },
        {
            "buffer" : 0,
            "byteLength" : 19238,
            "byteOffset" : 43456
        },
        {
            "buffer" : 0,
            "byteLength" : 12543,
            "byteOffset" : 62696
        },
        {
            "buffer" : 0,
            "byteLength" : 74004,
            "byteOffset" : 75240,
            "target" : 34962
        },
        {
            "buffer" : 0,
            "byteLength" : 49336,
            "byteOffset" : 149244,
            "target" : 34962
        },
        {
            "buffer" : 0,
            "byteLength" : 49336,
            "byteOffset" : 198580,
            "target" : 34962
        },
        {
            "buffer" : 0,
            "byteLength" : 49336,
            "byteOffset" : 247916,
            "target" : 34962
        },
        {
            "buffer" : 0,
            "byteLength" : 74004,
            "byteOffset" : 297252,
            "target" : 34962
        },
        {
            "buffer" : 0,
            "byteLength" : 61584,
            "byteOffset" : 371256,
            "target" : 34963
        },
        {
            "buffer" : 0,
            "byteLength" : 684695,
            "byteOffset" : 432840
        },
        {
            "buffer" : 0,
            "byteLength" : 605,
            "byteOffset" : 1117536
        },
        {
            "buffer" : 0,
            "byteLength" : 7164,
            "byteOffset" : 1118144,
            "target" : 34962
        },
        {
            "buffer" : 0,
            "byteLength" : 4776,
            "byteOffset" : 1125308,
            "target" : 34962
        },
        {
            "buffer" : 0,
            "byteLength" : 4776,
            "byteOffset" : 1130084,
            "target" : 34962
        },
        {
            "buffer" : 0,
            "byteLength" : 4776,
            "byteOffset" : 1134860,
            "target" : 34962
        },
        {
            "buffer" : 0,
            "byteLength" : 4776,
            "byteOffset" : 1139636,
            "target" : 34962
        },
        {
            "buffer" : 0,
            "byteLength" : 7164,
            "byteOffset" : 1144412,
            "target" : 34962
        },
        {
            "buffer" : 0,
            "byteLength" : 1728,
            "byteOffset" : 1151576,
            "target" : 34963
        },
        {
            "buffer" : 0,
            "byteLength" : 28204,
            "byteOffset" : 1153304
        },
        {
            "buffer" : 0,
            "byteLength" : 605,
            "byteOffset" : 1181508
        },
        {
            "buffer" : 0,
            "byteLength" : 36936,
            "byteOffset" : 1182116,
            "target" : 34962
        },
        {
            "buffer" : 0,
            "byteLength" : 24624,
            "byteOffset" : 1219052,
            "target" : 34962
        },
        {
            "buffer" : 0,
            "byteLength" : 24624,
            "byteOffset" : 1243676,
            "target" : 34962
        },
        {
            "buffer" : 0,
            "byteLength" : 24624,
            "byteOffset" : 1268300,
            "target" : 34962
        },
        {
            "buffer" : 0,
            "byteLength" : 36936,
            "byteOffset" : 1292924,
            "target" : 34962
        },
        {
            "buffer" : 0,
            "byteLength" : 31104,
            "byteOffset" : 1329860,
            "target" : 34963
        },
        {
            "buffer" : 0,
            "byteLength" : 605,
            "byteOffset" : 1360964
        },
        {
            "buffer" : 0,
            "byteLength" : 605,
            "byteOffset" : 1361572
        },
        {
            "buffer" : 0,
            "byteLength" : 48816,
            "byteOffset" : 1362180,
            "target" : 34962
        },
        {
            "buffer" : 0,
            "byteLength" : 32544,
            "byteOffset" : 1410996,
            "target" : 34962
        },
        {
            "buffer" : 0,
            "byteLength" : 32544,
            "byteOffset" : 1443540,
            "target" : 34962
        },
        {
            "buffer" : 0,
            "byteLength" : 32544,
            "byteOffset" : 1476084,
            "target" : 34962
        },
        {
            "buffer" : 0,
            "byteLength" : 48816,
            "byteOffset" : 1508628,
            "target" : 34962
        },
        {
            "buffer" : 0,
            "byteLength" : 28608,
            "byteOffset" : 1557444,
            "target" : 34963
        },
        {
            "buffer" : 0,
            "byteLength" : 130167,
            "byteOffset" : 1586052
        },
        {
            "buffer" : 0,
            "byteLength" : 7994,
            "byteOffset" : 1716220
        }
    ],
    "samplers" : [
        {
            "magFilter" : 9729,
            "minFilter" : 9987
        }
    ],
    "buffers" : [
        {
            "byteLength" : 1724216,
            "uri" : "data:application/octet-stream;base64,"
        }
    ]
}
