{"buffers":[{"uri":"scene.bin","byteLength":809652}],"asset":{"version":"2.0","generator":"gltfpack 0.19","extras":{"author":"LeafChan (https://sketchfab.com/CuteLeaf)","license":"CC-BY-4.0 (http://creativecommons.org/licenses/by/4.0/)","source":"https://sketchfab.com/3d-models/halloween-2ec65917ad7f4568850260567172cf10","title":"Halloween!!🎃 👻 🍭"}},"extensionsUsed":["KHR_mesh_quantization","KHR_texture_transform","KHR_materials_unlit"],"extensionsRequired":["KHR_mesh_quantization"],"bufferViews":[{"buffer":0,"byteOffset":0,"byteLength":129328,"byteStride":4,"target":34962},{"buffer":0,"byteOffset":129328,"byteLength":258656,"byteStride":8,"target":34962},{"buffer":0,"byteOffset":387984,"byteLength":71688,"byteStride":4,"target":34962},{"buffer":0,"byteOffset":459672,"byteLength":320580,"target":34963},{"buffer":0,"byteOffset":780252,"byteLength":600},{"buffer":0,"byteOffset":780852,"byteLength":10800},{"buffer":0,"byteOffset":791652,"byteLength":18000}],"accessors":[{"bufferView":0,"byteOffset":0,"componentType":5120,"count":5305,"type":"VEC3","normalized":true},{"bufferView":1,"byteOffset":0,"componentType":5123,"count":5305,"type":"VEC3","min":[2212,118,1803],"max":[12997,5652,8148]},{"bufferView":2,"byteOffset":0,"componentType":5123,"count":5305,"type":"VEC2","normalized":true},{"bufferView":3,"byteOffset":0,"componentType":5123,"count":26196,"type":"SCALAR"},{"bufferView":0,"byteOffset":21220,"componentType":5120,"count":100,"type":"VEC3","normalized":true},{"bufferView":1,"byteOffset":42440,"componentType":5123,"count":100,"type":"VEC3","min":[0,540,0],"max":[16383,11906,6888]},{"bufferView":2,"byteOffset":21220,"componentType":5123,"count":100,"type":"VEC2","normalized":true},{"bufferView":3,"byteOffset":52392,"componentType":5123,"count":150,"type":"SCALAR"},{"bufferView":0,"byteOffset":21620,"componentType":5120,"count":4,"type":"VEC3","normalized":true},{"bufferView":1,"byteOffset":43240,"componentType":5123,"count":4,"type":"VEC3","min":[7415,7304,6247],"max":[8213,8287,6247]},{"bufferView":2,"byteOffset":21620,"componentType":5123,"count":4,"type":"VEC2","normalized":true},{"bufferView":3,"byteOffset":52692,"componentType":5123,"count":6,"type":"SCALAR"},{"bufferView":0,"byteOffset":21636,"componentType":5120,"count":4,"type":"VEC3","normalized":true},{"bufferView":1,"byteOffset":43272,"componentType":5123,"count":4,"type":"VEC3","min":[7600,7532,6247],"max":[8027,8059,6247]},{"bufferView":2,"byteOffset":21636,"componentType":5123,"count":4,"type":"VEC2","normalized":true},{"bufferView":3,"byteOffset":52704,"componentType":5123,"count":6,"type":"SCALAR"},{"bufferView":0,"byteOffset":21652,"componentType":5120,"count":4,"type":"VEC3","normalized":true},{"bufferView":1,"byteOffset":43304,"componentType":5123,"count":4,"type":"VEC3","min":[7320,7187,6247],"max":[8307,8404,6247]},{"bufferView":2,"byteOffset":21652,"componentType":5123,"count":4,"type":"VEC2","normalized":true},{"bufferView":3,"byteOffset":52716,"componentType":5123,"count":6,"type":"SCALAR"},{"bufferView":0,"byteOffset":21668,"componentType":5120,"count":4,"type":"VEC3","normalized":true},{"bufferView":1,"byteOffset":43336,"componentType":5123,"count":4,"type":"VEC3","min":[7386,7268,6247],"max":[8241,8323,6247]},{"bufferView":2,"byteOffset":21668,"componentType":5123,"count":4,"type":"VEC2","normalized":true},{"bufferView":3,"byteOffset":52728,"componentType":5123,"count":6,"type":"SCALAR"},{"bufferView":0,"byteOffset":21684,"componentType":5120,"count":4,"type":"VEC3","normalized":true},{"bufferView":1,"byteOffset":43368,"componentType":5123,"count":4,"type":"VEC3","min":[5313,5767,6247],"max":[10314,9824,6247]},{"bufferView":2,"byteOffset":21684,"componentType":5123,"count":4,"type":"VEC2","normalized":true},{"bufferView":3,"byteOffset":52740,"componentType":5123,"count":6,"type":"SCALAR"},{"bufferView":0,"byteOffset":21700,"componentType":5120,"count":4,"type":"VEC3","normalized":true},{"bufferView":1,"byteOffset":43400,"componentType":5123,"count":4,"type":"VEC3","min":[5313,5767,6247],"max":[10314,9824,6247]},{"bufferView":2,"byteOffset":21700,"componentType":5123,"count":4,"type":"VEC2","normalized":true},{"bufferView":3,"byteOffset":52752,"componentType":5123,"count":6,"type":"SCALAR"},{"bufferView":0,"byteOffset":21716,"componentType":5120,"count":4,"type":"VEC3","normalized":true},{"bufferView":1,"byteOffset":43432,"componentType":5123,"count":4,"type":"VEC3","min":[5313,5767,6247],"max":[10314,9824,6247]},{"bufferView":2,"byteOffset":21716,"componentType":5123,"count":4,"type":"VEC2","normalized":true},{"bufferView":3,"byteOffset":52764,"componentType":5123,"count":6,"type":"SCALAR"},{"bufferView":0,"byteOffset":21732,"componentType":5120,"count":4,"type":"VEC3","normalized":true},{"bufferView":1,"byteOffset":43464,"componentType":5123,"count":4,"type":"VEC3","min":[5721,6098,6247],"max":[9907,9493,6247]},{"bufferView":2,"byteOffset":21732,"componentType":5123,"count":4,"type":"VEC2","normalized":true},{"bufferView":3,"byteOffset":52776,"componentType":5123,"count":6,"type":"SCALAR"},{"bufferView":0,"byteOffset":21748,"componentType":5120,"count":4,"type":"VEC3","normalized":true},{"bufferView":1,"byteOffset":43496,"componentType":5123,"count":4,"type":"VEC3","min":[7588,7518,6247],"max":[8039,8073,6247]},{"bufferView":2,"byteOffset":21748,"componentType":5123,"count":4,"type":"VEC2","normalized":true},{"bufferView":3,"byteOffset":52788,"componentType":5123,"count":6,"type":"SCALAR"},{"bufferView":0,"byteOffset":21764,"componentType":5120,"count":4,"type":"VEC3","normalized":true},{"bufferView":1,"byteOffset":43528,"componentType":5123,"count":4,"type":"VEC3","min":[7338,7246,6247],"max":[8290,8346,6247]},{"bufferView":2,"byteOffset":21764,"componentType":5123,"count":4,"type":"VEC2","normalized":true},{"bufferView":3,"byteOffset":52800,"componentType":5123,"count":6,"type":"SCALAR"},{"bufferView":0,"byteOffset":21780,"componentType":5120,"count":4,"type":"VEC3","normalized":true},{"bufferView":1,"byteOffset":43560,"componentType":5123,"count":4,"type":"VEC3","min":[7306,7171,6247],"max":[8321,8420,6247]},{"bufferView":2,"byteOffset":21780,"componentType":5123,"count":4,"type":"VEC2","normalized":true},{"bufferView":3,"byteOffset":52812,"componentType":5123,"count":6,"type":"SCALAR"},{"bufferView":0,"byteOffset":21796,"componentType":5120,"count":4,"type":"VEC3","normalized":true},{"bufferView":1,"byteOffset":43592,"componentType":5123,"count":4,"type":"VEC3","min":[7320,7187,6247],"max":[8307,8404,6247]},{"bufferView":2,"byteOffset":21796,"componentType":5123,"count":4,"type":"VEC2","normalized":true},{"bufferView":3,"byteOffset":52824,"componentType":5123,"count":6,"type":"SCALAR"},{"bufferView":0,"byteOffset":21812,"componentType":5120,"count":4,"type":"VEC3","normalized":true},{"bufferView":1,"byteOffset":43624,"componentType":5123,"count":4,"type":"VEC3","min":[7106,7000,6247],"max":[8522,8591,6247]},{"bufferView":2,"byteOffset":21812,"componentType":5123,"count":4,"type":"VEC2","normalized":true},{"bufferView":3,"byteOffset":52836,"componentType":5123,"count":6,"type":"SCALAR"},{"bufferView":0,"byteOffset":21828,"componentType":5120,"count":4,"type":"VEC3","normalized":true},{"bufferView":1,"byteOffset":43656,"componentType":5123,"count":4,"type":"VEC3","min":[7659,7604,6247],"max":[7969,7987,6247]},{"bufferView":2,"byteOffset":21828,"componentType":5123,"count":4,"type":"VEC2","normalized":true},{"bufferView":3,"byteOffset":52848,"componentType":5123,"count":6,"type":"SCALAR"},{"bufferView":0,"byteOffset":21844,"componentType":5120,"count":1866,"type":"VEC3","normalized":true},{"bufferView":1,"byteOffset":43688,"componentType":5123,"count":1866,"type":"VEC3","min":[9459,2377,2589],"max":[13337,6373,4263]},{"bufferView":2,"byteOffset":21844,"componentType":5123,"count":1866,"type":"VEC2","normalized":true},{"bufferView":3,"byteOffset":52860,"componentType":5123,"count":10470,"type":"SCALAR"},{"bufferView":0,"byteOffset":29308,"componentType":5120,"count":4996,"type":"VEC3","normalized":true},{"bufferView":1,"byteOffset":58616,"componentType":5123,"count":4996,"type":"VEC3","min":[1458,4655,1091],"max":[12659,11363,5955]},{"bufferView":2,"byteOffset":29308,"componentType":5123,"count":4996,"type":"VEC2","normalized":true},{"bufferView":3,"byteOffset":73800,"componentType":5123,"count":24852,"type":"SCALAR"},{"bufferView":0,"byteOffset":49292,"componentType":5120,"count":14410,"type":"VEC3","normalized":true},{"bufferView":1,"byteOffset":98584,"componentType":5123,"count":14410,"type":"VEC3","min":[1122,0,464],"max":[15285,11385,10241]},{"bufferView":3,"byteOffset":123504,"componentType":5123,"count":76086,"type":"SCALAR"},{"bufferView":0,"byteOffset":106932,"componentType":5120,"count":5599,"type":"VEC3","normalized":true},{"bufferView":1,"byteOffset":213864,"componentType":5123,"count":5599,"type":"VEC3","min":[1137,48,494],"max":[15254,11019,10188]},{"bufferView":2,"byteOffset":49292,"componentType":5123,"count":5599,"type":"VEC2","normalized":true},{"bufferView":3,"byteOffset":275676,"componentType":5123,"count":22452,"type":"SCALAR"},{"bufferView":4,"byteOffset":0,"componentType":5126,"count":150,"type":"SCALAR","min":[0.0416666679],"max":[5.00833321]},{"bufferView":5,"byteOffset":0,"componentType":5126,"count":150,"type":"VEC3"},{"bufferView":6,"byteOffset":0,"componentType":5126,"count":150,"type":"VEC3"},{"bufferView":5,"byteOffset":1800,"componentType":5126,"count":150,"type":"VEC3"},{"bufferView":6,"byteOffset":1800,"componentType":5126,"count":150,"type":"VEC3"},{"bufferView":6,"byteOffset":3600,"componentType":5126,"count":150,"type":"VEC3"},{"bufferView":6,"byteOffset":5400,"componentType":5126,"count":150,"type":"VEC3"},{"bufferView":5,"byteOffset":3600,"componentType":5126,"count":150,"type":"VEC3"},{"bufferView":5,"byteOffset":5400,"componentType":5126,"count":150,"type":"VEC3"},{"bufferView":5,"byteOffset":7200,"componentType":5126,"count":150,"type":"VEC3"},{"bufferView":5,"byteOffset":9000,"componentType":5126,"count":150,"type":"VEC3"},{"bufferView":6,"byteOffset":7200,"componentType":5126,"count":150,"type":"VEC3"},{"bufferView":6,"byteOffset":9000,"componentType":5126,"count":150,"type":"VEC3"},{"bufferView":6,"byteOffset":10800,"componentType":5126,"count":150,"type":"VEC3"},{"bufferView":6,"byteOffset":12600,"componentType":5126,"count":150,"type":"VEC3"},{"bufferView":6,"byteOffset":14400,"componentType":5126,"count":150,"type":"VEC3"},{"bufferView":6,"byteOffset":16200,"componentType":5126,"count":150,"type":"VEC3"}],"samplers":[{"magFilter":9729,"minFilter":9987}],"images":[{"uri":"textures/aiStandardSurface2_baseColor.png"},{"uri":"textures/aiStandardSurface4_baseColor.png"},{"uri":"textures/aiStandardSurface1_baseColor.png"},{"uri":"textures/aiStandardSurface8_baseColor.png"}],"textures":[{"sampler":0,"source":0},{"sampler":0,"source":1},{"sampler":0,"source":2},{"sampler":0,"source":3}],"materials":[{"name":"aiStandardSurface2","pbrMetallicRoughness":{"baseColorTexture":{"index":0,"extensions":{"KHR_texture_transform":{"offset":[0.00697165728,0.00697165728],"scale":[15.7805185,15.775526]}}},"metallicFactor":0},"doubleSided":true,"extensions":{"KHR_materials_unlit":{}}},{"name":"aiStandardSurface4","pbrMetallicRoughness":{"baseColorTexture":{"index":1,"extensions":{"KHR_texture_transform":{"offset":[0.015699625,0.216539979],"scale":[15.1773701,9.74953461]}}},"metallicFactor":0},"alphaMode":"BLEND","doubleSided":true,"extensions":{"KHR_materials_unlit":{}}},{"name":"aiStandardSurface6","pbrMetallicRoughness":{"baseColorTexture":{"index":0,"extensions":{"KHR_texture_transform":{"offset":[0.565857172,0.00697168708],"scale":[6.29373026,11.2788439]}}},"metallicFactor":0},"extensions":{"KHR_materials_unlit":{}}},{"name":"aiStandardSurface1","pbrMetallicRoughness":{"baseColorTexture":{"index":2,"extensions":{"KHR_texture_transform":{"offset":[0.00697165728,0.00697168661],"scale":[15.7778378,15.7805185]}}},"metallicFactor":0},"doubleSided":true,"extensions":{"KHR_materials_unlit":{}}},{"name":"aiStandardSurface7","pbrMetallicRoughness":{"baseColorFactor":[0.168856263,0.0590197556,0.0590197556,1],"metallicFactor":0},"extensions":{"KHR_materials_unlit":{}}},{"name":"aiStandardSurface8","pbrMetallicRoughness":{"baseColorTexture":{"index":3,"extensions":{"KHR_texture_transform":{"offset":[0.0128840003,0.0143820001],"scale":[15.6246157,15.6067238]}}},"metallicFactor":0},"doubleSided":true,"extensions":{"KHR_materials_unlit":{}}}],"meshes":[{"primitives":[{"attributes":{"NORMAL":0,"POSITION":1,"TEXCOORD_0":2},"indices":3,"material":0},{"attributes":{"NORMAL":4,"POSITION":5,"TEXCOORD_0":6},"indices":7,"material":1}]},{"primitives":[{"attributes":{"NORMAL":8,"POSITION":9,"TEXCOORD_0":10},"indices":11,"material":1}]},{"primitives":[{"attributes":{"NORMAL":12,"POSITION":13,"TEXCOORD_0":14},"indices":15,"material":1}]},{"primitives":[{"attributes":{"NORMAL":16,"POSITION":17,"TEXCOORD_0":18},"indices":19,"material":1}]},{"primitives":[{"attributes":{"NORMAL":20,"POSITION":21,"TEXCOORD_0":22},"indices":23,"material":1}]},{"primitives":[{"attributes":{"NORMAL":24,"POSITION":25,"TEXCOORD_0":26},"indices":27,"material":1}]},{"primitives":[{"attributes":{"NORMAL":28,"POSITION":29,"TEXCOORD_0":30},"indices":31,"material":1}]},{"primitives":[{"attributes":{"NORMAL":32,"POSITION":33,"TEXCOORD_0":34},"indices":35,"material":1}]},{"primitives":[{"attributes":{"NORMAL":36,"POSITION":37,"TEXCOORD_0":38},"indices":39,"material":1}]},{"primitives":[{"attributes":{"NORMAL":40,"POSITION":41,"TEXCOORD_0":42},"indices":43,"material":1}]},{"primitives":[{"attributes":{"NORMAL":44,"POSITION":45,"TEXCOORD_0":46},"indices":47,"material":1}]},{"primitives":[{"attributes":{"NORMAL":48,"POSITION":49,"TEXCOORD_0":50},"indices":51,"material":1}]},{"primitives":[{"attributes":{"NORMAL":52,"POSITION":53,"TEXCOORD_0":54},"indices":55,"material":1}]},{"primitives":[{"attributes":{"NORMAL":56,"POSITION":57,"TEXCOORD_0":58},"indices":59,"material":1}]},{"primitives":[{"attributes":{"NORMAL":60,"POSITION":61,"TEXCOORD_0":62},"indices":63,"material":1}]},{"primitives":[{"attributes":{"NORMAL":64,"POSITION":65,"TEXCOORD_0":66},"indices":67,"material":2},{"attributes":{"NORMAL":68,"POSITION":69,"TEXCOORD_0":70},"indices":71,"material":3},{"attributes":{"NORMAL":72,"POSITION":73},"indices":74,"material":4},{"attributes":{"NORMAL":75,"POSITION":76,"TEXCOORD_0":77},"indices":78,"material":5}]}],"animations":[{"name":"Take 001","samplers":[{"input":79,"output":80},{"input":79,"output":81},{"input":79,"output":82},{"input":79,"output":83},{"input":79,"output":84},{"input":79,"output":85},{"input":79,"output":86},{"input":79,"output":87},{"input":79,"output":88},{"input":79,"output":89},{"input":79,"output":90},{"input":79,"output":91},{"input":79,"output":92},{"input":79,"output":93},{"input":79,"output":94},{"input":79,"output":95}],"channels":[{"sampler":0,"target":{"node":22,"path":"translation"}},{"sampler":1,"target":{"node":22,"path":"scale"}},{"sampler":2,"target":{"node":24,"path":"translation"}},{"sampler":3,"target":{"node":24,"path":"scale"}},{"sampler":4,"target":{"node":26,"path":"scale"}},{"sampler":5,"target":{"node":28,"path":"scale"}},{"sampler":6,"target":{"node":30,"path":"translation"}},{"sampler":7,"target":{"node":32,"path":"translation"}},{"sampler":8,"target":{"node":34,"path":"translation"}},{"sampler":9,"target":{"node":36,"path":"translation"}},{"sampler":10,"target":{"node":38,"path":"scale"}},{"sampler":11,"target":{"node":40,"path":"scale"}},{"sampler":12,"target":{"node":42,"path":"scale"}},{"sampler":13,"target":{"node":44,"path":"scale"}},{"sampler":14,"target":{"node":46,"path":"scale"}},{"sampler":15,"target":{"node":48,"path":"scale"}}]}],"nodes":[{"mesh":0,"translation":[-5.29698086,-5.28470659,-4.23458004],"scale":[0.000677909178,0.000677909178,0.000677909178]},{"mesh":1,"translation":[-5.29698086,-5.28470659,-4.23458004],"scale":[0.000677909178,0.000677909178,0.000677909178]},{"mesh":2,"translation":[-5.29698086,-5.28470659,-4.23458004],"scale":[0.000677909178,0.000677909178,0.000677909178]},{"mesh":3,"translation":[-5.29698086,-5.28470659,-4.23458004],"scale":[0.000677909178,0.000677909178,0.000677909178]},{"mesh":4,"translation":[-5.29698086,-5.28470659,-4.23458004],"scale":[0.000677909178,0.000677909178,0.000677909178]},{"mesh":5,"translation":[-5.29698086,-5.28470659,-4.23458004],"scale":[0.000677909178,0.000677909178,0.000677909178]},{"mesh":6,"translation":[-5.29698086,-5.28470659,-4.23458004],"scale":[0.000677909178,0.000677909178,0.000677909178]},{"mesh":7,"translation":[-5.29698086,-5.28470659,-4.23458004],"scale":[0.000677909178,0.000677909178,0.000677909178]},{"mesh":8,"translation":[-5.29698086,-5.28470659,-4.23458004],"scale":[0.000677909178,0.000677909178,0.000677909178]},{"mesh":9,"translation":[-5.29698086,-5.28470659,-4.23458004],"scale":[0.000677909178,0.000677909178,0.000677909178]},{"mesh":10,"translation":[-5.29698086,-5.28470659,-4.23458004],"scale":[0.000677909178,0.000677909178,0.000677909178]},{"mesh":11,"translation":[-5.29698086,-5.28470659,-4.23458004],"scale":[0.000677909178,0.000677909178,0.000677909178]},{"mesh":12,"translation":[-5.29698086,-5.28470659,-4.23458004],"scale":[0.000677909178,0.000677909178,0.000677909178]},{"mesh":13,"translation":[-5.29698086,-5.28470659,-4.23458004],"scale":[0.000677909178,0.000677909178,0.000677909178]},{"mesh":14,"translation":[-5.29698086,-5.28470659,-4.23458004],"scale":[0.000677909178,0.000677909178,0.000677909178]},{"mesh":15,"translation":[-5.29698086,-5.28470659,-4.23458004],"scale":[0.000677909178,0.000677909178,0.000677909178]},{"name":"Sketchfab_model","matrix":[1,0,0,0,0,2.22044605e-16,-1,0,0,1,2.22044605e-16,0,0,0,0,1],"children":[17]},{"name":"9e40baac87524264a203ac3717fbd6e9.fbx","matrix":[1,0,0,0,0,0,1,0,0,-1,0,0,0,0,0,1],"children":[18]},{"name":"Object_2","children":[19]},{"name":"RootNode","children":[20]},{"name":"group25","children":[21]},{"name":"group18","children":[22,24,26,28,30,32,34,36,38,40,42,44,46,48]},{"name":"pPlane16","translation":[2.60717297,-1.79611206,-1.81491828],"children":[23]},{"name":"pPlane16_aiStandardSurface4_0","children":[1]},{"name":"pPlane15","translation":[3.21575975,-2.16509724,-1.97214293],"children":[25]},{"name":"pPlane15_aiStandardSurface4_0","children":[2]},{"name":"pPlane11","translation":[3.53494072,1.29717922,-3.70520973],"children":[27]},{"name":"pPlane11_aiStandardSurface4_0","children":[3]},{"name":"pPlane8","translation":[-0.193215013,2.58519793,-3.70520973],"children":[29]},{"name":"pPlane8_aiStandardSurface4_0","children":[4]},{"name":"pPlane21","translation":[-2.50525355,-2.51561904,-4.57598591],"children":[31]},{"name":"pPlane21_aiStandardSurface4_0","children":[5]},{"name":"pPlane22","translation":[-2.90413904,2.02305174,-3.69214249],"children":[33]},{"name":"pPlane22_aiStandardSurface4_0","children":[6]},{"name":"pPlane23","translation":[-0.0256946087,1.45167494,-4.48928452],"children":[35]},{"name":"pPlane23_aiStandardSurface4_0","children":[7]},{"name":"pPlane24","translation":[3.47662926,-0.964748979,-4.1405592],"children":[37]},{"name":"pPlane24_aiStandardSurface4_0","children":[8]},{"name":"pPlane25","translation":[-4.50071239,-0.416054845,-3.70520973],"children":[39]},{"name":"pPlane25_aiStandardSurface4_0","children":[9]},{"name":"pPlane26","translation":[1.44225311,-1.40811598,-3.70520973],"children":[41]},{"name":"pPlane26_aiStandardSurface4_0","children":[10]},{"name":"pPlane27","translation":[4.55736065,-2.43678069,-3.70520973],"children":[43]},{"name":"pPlane27_aiStandardSurface4_0","children":[11]},{"name":"pPlane34","translation":[4.11460304,0.708865404,-3.70520973],"children":[45]},{"name":"pPlane34_aiStandardSurface4_0","children":[12]},{"name":"pPlane35","translation":[-1.72445583,-2.17322683,-3.70520973],"children":[47]},{"name":"pPlane35_aiStandardSurface4_0","children":[13]},{"name":"pPlane38","translation":[3.03046656,-2.44329643,-1.97214293],"children":[49]},{"name":"pPlane38_aiStandardSurface4_0","children":[14]}],"scenes":[{"name":"Sketchfab_Scene","nodes":[0,15,16]}],"scene":0}