{"buffers":[{"uri":"scene.bin","byteLength":360360}],"asset":{"version":"2.0","generator":"gltfpack 0.19","extras":{"author":"TropicalMoisture (https://sketchfab.com/TropicalMoisture)","license":"CC-BY-4.0 (http://creativecommons.org/licenses/by/4.0/)","source":"https://sketchfab.com/3d-models/cats-on-a-fridge-c0ce3a4431664ecab830ced119b21011","title":"Cats on a Fridge"}},"extensionsUsed":["KHR_mesh_quantization","KHR_texture_transform","KHR_materials_unlit"],"extensionsRequired":["KHR_mesh_quantization"],"bufferViews":[{"buffer":0,"byteOffset":0,"byteLength":61796,"byteStride":4,"target":34962},{"buffer":0,"byteOffset":61796,"byteLength":123592,"byteStride":8,"target":34962},{"buffer":0,"byteOffset":185388,"byteLength":58108,"byteStride":4,"target":34962},{"buffer":0,"byteOffset":243496,"byteLength":116862,"target":34963}],"accessors":[{"bufferView":0,"byteOffset":0,"componentType":5120,"count":885,"type":"VEC3","normalized":true},{"bufferView":1,"byteOffset":0,"componentType":5123,"count":885,"type":"VEC3","min":[347,12830,5081],"max":[7631,16383,10586]},{"bufferView":2,"byteOffset":0,"componentType":5123,"count":885,"type":"VEC2","normalized":true},{"bufferView":3,"byteOffset":0,"componentType":5123,"count":3777,"type":"SCALAR"},{"bufferView":0,"byteOffset":3540,"componentType":5120,"count":1040,"type":"VEC3","normalized":true},{"bufferView":1,"byteOffset":7080,"componentType":5123,"count":1040,"type":"VEC3","min":[7305,0,0],"max":[14596,8887,7845]},{"bufferView":2,"byteOffset":3540,"componentType":5123,"count":1040,"type":"VEC2","normalized":true},{"bufferView":3,"byteOffset":7554,"componentType":5123,"count":4722,"type":"SCALAR"},{"bufferView":0,"byteOffset":7700,"componentType":5120,"count":1040,"type":"VEC3","normalized":true},{"bufferView":1,"byteOffset":15400,"componentType":5123,"count":1040,"type":"VEC3","min":[7380,121,92],"max":[14525,8763,7751]},{"bufferView":2,"byteOffset":7700,"componentType":5123,"count":1040,"type":"VEC2","normalized":true},{"bufferView":3,"byteOffset":16998,"componentType":5123,"count":4722,"type":"SCALAR"},{"bufferView":0,"byteOffset":11860,"componentType":5120,"count":4264,"type":"VEC3","normalized":true},{"bufferView":1,"byteOffset":23720,"componentType":5123,"count":4264,"type":"VEC3","min":[0,102,157],"max":[13014,13061,12434]},{"bufferView":2,"byteOffset":11860,"componentType":5123,"count":4264,"type":"VEC2","normalized":true},{"bufferView":3,"byteOffset":26442,"componentType":5123,"count":14322,"type":"SCALAR"},{"bufferView":0,"byteOffset":28916,"componentType":5120,"count":889,"type":"VEC3","normalized":true},{"bufferView":1,"byteOffset":57832,"componentType":5123,"count":889,"type":"VEC3","min":[427,12914,5162],"max":[7564,16301,10504]},{"bufferView":2,"byteOffset":28916,"componentType":5123,"count":889,"type":"VEC2","normalized":true},{"bufferView":3,"byteOffset":55086,"componentType":5123,"count":3816,"type":"SCALAR"},{"bufferView":0,"byteOffset":32472,"componentType":5120,"count":210,"type":"VEC3","normalized":true},{"bufferView":1,"byteOffset":64944,"componentType":5123,"count":210,"type":"VEC3","min":[11301,5349,1253],"max":[12247,6314,2121]},{"bufferView":2,"byteOffset":32472,"componentType":5123,"count":210,"type":"VEC2","normalized":true},{"bufferView":3,"byteOffset":62718,"componentType":5123,"count":858,"type":"SCALAR"},{"bufferView":0,"byteOffset":33312,"componentType":5120,"count":869,"type":"VEC3","normalized":true},{"bufferView":1,"byteOffset":66624,"componentType":5123,"count":869,"type":"VEC3","min":[4407,5251,798],"max":[12574,8560,9036]},{"bufferView":2,"byteOffset":33312,"componentType":5123,"count":869,"type":"VEC2","normalized":true},{"bufferView":3,"byteOffset":64434,"componentType":5123,"count":3336,"type":"SCALAR"},{"bufferView":0,"byteOffset":36788,"componentType":5120,"count":357,"type":"VEC3","normalized":true},{"bufferView":1,"byteOffset":73576,"componentType":5123,"count":357,"type":"VEC3","min":[10881,5268,922],"max":[12420,6765,2357]},{"bufferView":2,"byteOffset":36788,"componentType":5123,"count":357,"type":"VEC2","normalized":true},{"bufferView":3,"byteOffset":71106,"componentType":5123,"count":1368,"type":"SCALAR"},{"bufferView":0,"byteOffset":38216,"componentType":5120,"count":533,"type":"VEC3","normalized":true},{"bufferView":1,"byteOffset":76432,"componentType":5123,"count":533,"type":"VEC3","min":[4693,5318,994],"max":[12348,8254,8750]},{"bufferView":2,"byteOffset":38216,"componentType":5123,"count":533,"type":"VEC2","normalized":true},{"bufferView":3,"byteOffset":73842,"componentType":5123,"count":2406,"type":"SCALAR"},{"bufferView":0,"byteOffset":40348,"componentType":5120,"count":360,"type":"VEC3","normalized":true},{"bufferView":1,"byteOffset":80696,"componentType":5123,"count":360,"type":"VEC3","min":[5869,5386,1251],"max":[12199,7962,7858]},{"bufferView":2,"byteOffset":40348,"componentType":5123,"count":360,"type":"VEC2","normalized":true},{"bufferView":3,"byteOffset":78654,"componentType":5123,"count":1380,"type":"SCALAR"},{"bufferView":0,"byteOffset":41788,"componentType":5120,"count":212,"type":"VEC3","normalized":true},{"bufferView":1,"byteOffset":83576,"componentType":5123,"count":212,"type":"VEC3","min":[6548,5265,679],"max":[12811,10625,4477]},{"bufferView":2,"byteOffset":41788,"componentType":5123,"count":212,"type":"VEC2","normalized":true},{"bufferView":3,"byteOffset":81414,"componentType":5123,"count":318,"type":"SCALAR"},{"bufferView":0,"byteOffset":42636,"componentType":5120,"count":104,"type":"VEC3","normalized":true},{"bufferView":1,"byteOffset":85272,"componentType":5123,"count":104,"type":"VEC3","min":[4652,8694,6015],"max":[7433,9025,8797]},{"bufferView":2,"byteOffset":42636,"componentType":5123,"count":104,"type":"VEC2","normalized":true},{"bufferView":3,"byteOffset":82050,"componentType":5123,"count":288,"type":"SCALAR"},{"bufferView":0,"byteOffset":43052,"componentType":5120,"count":280,"type":"VEC3","normalized":true},{"bufferView":1,"byteOffset":86104,"componentType":5123,"count":280,"type":"VEC3","min":[6550,5250,678],"max":[12813,10604,4477]},{"bufferView":3,"byteOffset":82626,"componentType":5123,"count":420,"type":"SCALAR"},{"bufferView":0,"byteOffset":44172,"componentType":5120,"count":2233,"type":"VEC3","normalized":true},{"bufferView":1,"byteOffset":88344,"componentType":5123,"count":2233,"type":"VEC3","min":[1217,4063,4825],"max":[6706,11266,11688]},{"bufferView":2,"byteOffset":43052,"componentType":5123,"count":2233,"type":"VEC2","normalized":true},{"bufferView":3,"byteOffset":83466,"componentType":5123,"count":7446,"type":"SCALAR"},{"bufferView":0,"byteOffset":53104,"componentType":5120,"count":144,"type":"VEC3","normalized":true},{"bufferView":1,"byteOffset":106208,"componentType":5123,"count":144,"type":"VEC3","min":[4484,4153,6063],"max":[7042,4809,9201]},{"bufferView":2,"byteOffset":51984,"componentType":5123,"count":144,"type":"VEC2","normalized":true},{"bufferView":3,"byteOffset":98358,"componentType":5123,"count":270,"type":"SCALAR"},{"bufferView":0,"byteOffset":53680,"componentType":5120,"count":1387,"type":"VEC3","normalized":true},{"bufferView":1,"byteOffset":107360,"componentType":5123,"count":1387,"type":"VEC3","min":[6974,5284,1077],"max":[12234,12026,3971]},{"bufferView":2,"byteOffset":52560,"componentType":5123,"count":1387,"type":"VEC2","normalized":true},{"bufferView":3,"byteOffset":98898,"componentType":5123,"count":5142,"type":"SCALAR"},{"bufferView":0,"byteOffset":59228,"componentType":5120,"count":642,"type":"VEC3","normalized":true},{"bufferView":1,"byteOffset":118456,"componentType":5123,"count":642,"type":"VEC3","min":[4507,6504,5872],"max":[7572,8919,8937]},{"bufferView":3,"byteOffset":109182,"componentType":5123,"count":3840,"type":"SCALAR"}],"samplers":[{"magFilter":9729,"minFilter":9987}],"images":[{"uri":"textures/Material.009_baseColor.jpeg"},{"uri":"textures/Material.017_baseColor.jpeg"},{"uri":"textures/Material.010_baseColor.jpeg"},{"uri":"textures/Material.015_baseColor.jpeg"},{"uri":"textures/Material.007_baseColor.jpeg"},{"uri":"textures/Material.016_baseColor.jpeg"},{"uri":"textures/Material.020_baseColor.jpeg"},{"uri":"textures/Material.021_baseColor.jpeg"},{"uri":"textures/Material.011_baseColor.png"},{"uri":"textures/Material.005_baseColor.jpeg"},{"uri":"textures/Material.004_baseColor.jpeg"},{"uri":"textures/Material.013_baseColor.jpeg"},{"uri":"textures/Material.012_baseColor.jpeg"},{"uri":"textures/Material.023_baseColor.jpeg"},{"uri":"textures/Material.025_baseColor.jpeg"}],"textures":[{"sampler":0,"source":0},{"sampler":0,"source":1},{"sampler":0,"source":2},{"sampler":0,"source":3},{"sampler":0,"source":4},{"sampler":0,"source":5},{"sampler":0,"source":6},{"sampler":0,"source":7},{"sampler":0,"source":8},{"sampler":0,"source":9},{"sampler":0,"source":10},{"sampler":0,"source":11},{"sampler":0,"source":12},{"sampler":0,"source":13},{"sampler":0,"source":14}],"materials":[{"name":"Material.008","pbrMetallicRoughness":{"baseColorFactor":[0.310345888,0.814473391,1,0.141554028],"metallicFactor":0},"alphaMode":"BLEND","doubleSided":true,"extensions":{"KHR_materials_unlit":{}}},{"name":"Material.009","pbrMetallicRoughness":{"baseColorTexture":{"index":0,"extensions":{"KHR_texture_transform":{"offset":[0.00540000014,0.00247800001],"scale":[15.7602482,15.8223581]}}},"metallicFactor":0},"doubleSided":true,"extensions":{"KHR_materials_unlit":{}}},{"name":"Material.017","pbrMetallicRoughness":{"baseColorTexture":{"index":1,"extensions":{"KHR_texture_transform":{"offset":[0,0],"scale":[16.003664,15.9318552]}}},"metallicFactor":0},"doubleSided":true,"extensions":{"KHR_materials_unlit":{}}},{"name":"Material.010","pbrMetallicRoughness":{"baseColorTexture":{"index":2,"extensions":{"KHR_texture_transform":{"offset":[0.0225380007,0.018073],"scale":[14.9805965,15.5525999]}}},"metallicFactor":0},"doubleSided":true,"extensions":{"KHR_materials_unlit":{}}},{"name":"Material.015","pbrMetallicRoughness":{"baseColorFactor":[0.688769639,0.688769639,0.688769639,0.390841126],"baseColorTexture":{"index":3,"extensions":{"KHR_texture_transform":{"offset":[0.00315500004,0.00315500004],"scale":[10.5002117,15.9026804]}}},"metallicFactor":0},"alphaMode":"BLEND","doubleSided":true,"extensions":{"KHR_materials_unlit":{}}},{"name":"Material.014","pbrMetallicRoughness":{"baseColorFactor":[0.98061794,0.356616795,0.804589629,0.208435938],"metallicFactor":0},"alphaMode":"BLEND","doubleSided":true,"extensions":{"KHR_materials_unlit":{}}},{"name":"Material.007","pbrMetallicRoughness":{"baseColorTexture":{"index":4,"extensions":{"KHR_texture_transform":{"offset":[0.00309600006,0.00309600006],"scale":[15.0691776,15.6490545]}}},"metallicFactor":0},"extensions":{"KHR_materials_unlit":{}}},{"name":"Material.016","pbrMetallicRoughness":{"baseColorTexture":{"index":5,"extensions":{"KHR_texture_transform":{"offset":[0,0],"scale":[15.589057,15.7732906]}}},"metallicFactor":0},"extensions":{"KHR_materials_unlit":{}}},{"name":"Material.020","pbrMetallicRoughness":{"baseColorTexture":{"index":6,"extensions":{"KHR_texture_transform":{"offset":[0.560057998,0.875708997],"scale":[6.97269964,0.410750002]}}},"metallicFactor":0},"doubleSided":true,"extensions":{"KHR_materials_unlit":{}}},{"name":"Material.021","pbrMetallicRoughness":{"baseColorTexture":{"index":7,"extensions":{"KHR_texture_transform":{"offset":[0,0.0583770014],"scale":[14.6270123,10.0802279]}}},"metallicFactor":0},"doubleSided":true,"extensions":{"KHR_materials_unlit":{}}},{"name":"Material.011","pbrMetallicRoughness":{"baseColorFactor":[0,0.583040476,1,0.0503514335],"baseColorTexture":{"index":8,"extensions":{"KHR_texture_transform":{"offset":[0.00315500004,0.00315500004],"scale":[14.1145582,14.5411043]}}},"metallicFactor":0},"alphaMode":"BLEND","doubleSided":true,"extensions":{"KHR_materials_unlit":{}}},{"name":"Material.005","pbrMetallicRoughness":{"baseColorTexture":{"index":9,"extensions":{"KHR_texture_transform":{"offset":[0.54250598,0.00309600006],"scale":[6.43664169,15.5976982]}}},"metallicFactor":0},"extensions":{"KHR_materials_unlit":{}}},{"name":"Material.004","pbrMetallicRoughness":{"baseColorTexture":{"index":10,"extensions":{"KHR_texture_transform":{"offset":[-0.0059580002,0.0191769991],"scale":[15.7276793,15.5852795]}}},"metallicFactor":0},"doubleSided":true,"extensions":{"KHR_materials_unlit":{}}},{"name":"Material.013","pbrMetallicRoughness":{"baseColorTexture":{"index":11,"extensions":{"KHR_texture_transform":{"offset":[-0.488896996,-0.797623992],"scale":[23.8278046,28.6995926]}}},"metallicFactor":0},"doubleSided":true,"extensions":{"KHR_materials_unlit":{}}},{"name":"Material.012","pbrMetallicRoughness":{"baseColorTexture":{"index":12,"extensions":{"KHR_texture_transform":{"offset":[0,0],"scale":[16.003664,15.8875561]}}},"metallicFactor":0},"doubleSided":true,"extensions":{"KHR_materials_unlit":{}}},{"name":"Material.023","pbrMetallicRoughness":{"baseColorTexture":{"index":13,"extensions":{"KHR_texture_transform":{"offset":[0,0],"scale":[16.003664,15.8875561]}}},"metallicFactor":0},"extensions":{"KHR_materials_unlit":{}}},{"name":"Material.025","pbrMetallicRoughness":{"baseColorTexture":{"index":14,"extensions":{"KHR_texture_transform":{"offset":[-0.0059580002,0.0191769991],"scale":[15.7276793,15.5852795]}}},"metallicFactor":0},"extensions":{"KHR_materials_unlit":{}}}],"meshes":[{"primitives":[{"attributes":{"NORMAL":0,"POSITION":1,"TEXCOORD_0":2},"indices":3,"material":16},{"attributes":{"NORMAL":4,"POSITION":5,"TEXCOORD_0":6},"indices":7,"material":15},{"attributes":{"NORMAL":8,"POSITION":9,"TEXCOORD_0":10},"indices":11,"material":14},{"attributes":{"NORMAL":12,"POSITION":13,"TEXCOORD_0":14},"indices":15,"material":13},{"attributes":{"NORMAL":16,"POSITION":17,"TEXCOORD_0":18},"indices":19,"material":12},{"attributes":{"NORMAL":20,"POSITION":21,"TEXCOORD_0":22},"indices":23,"material":11},{"attributes":{"NORMAL":24,"POSITION":25,"TEXCOORD_0":26},"indices":27,"material":7},{"attributes":{"NORMAL":28,"POSITION":29,"TEXCOORD_0":30},"indices":31,"material":10},{"attributes":{"NORMAL":32,"POSITION":33,"TEXCOORD_0":34},"indices":35,"material":4},{"attributes":{"NORMAL":36,"POSITION":37,"TEXCOORD_0":38},"indices":39,"material":6},{"attributes":{"NORMAL":40,"POSITION":41,"TEXCOORD_0":42},"indices":43,"material":9},{"attributes":{"NORMAL":44,"POSITION":45,"TEXCOORD_0":46},"indices":47,"material":8},{"attributes":{"NORMAL":48,"POSITION":49},"indices":50,"material":5},{"attributes":{"NORMAL":51,"POSITION":52,"TEXCOORD_0":53},"indices":54,"material":1},{"attributes":{"NORMAL":55,"POSITION":56,"TEXCOORD_0":57},"indices":58,"material":3},{"attributes":{"NORMAL":59,"POSITION":60,"TEXCOORD_0":61},"indices":62,"material":2},{"attributes":{"NORMAL":63,"POSITION":64},"indices":65,"material":0}]}],"nodes":[{"mesh":0,"translation":[-192.303574,26.2383041,-226.881622],"scale":[0.0241664276,0.0241664276,0.0241664276]}],"scenes":[{"name":"Sketchfab_Scene","nodes":[0]}],"scene":0}