{"buffers":[{"uri":"scene.bin","byteLength":1191616}],"asset":{"version":"2.0","generator":"gltfpack 0.19","extras":{"author":"Sachi.Nishimura (https://sketchfab.com/petit.peache)","license":"CC-BY-4.0 (http://creativecommons.org/licenses/by/4.0/)","source":"https://sketchfab.com/3d-models/jack-o-lantern-d0a363c8b6c542da8a1f5b7d85bee38d","title":"Jack-o'-Lantern"}},"extensionsUsed":["KHR_mesh_quantization","KHR_texture_transform"],"extensionsRequired":["KHR_mesh_quantization"],"bufferViews":[{"buffer":0,"byteOffset":0,"byteLength":155840,"byteStride":4,"target":34962},{"buffer":0,"byteOffset":155840,"byteLength":311680,"byteStride":8,"target":34962},{"buffer":0,"byteOffset":467520,"byteLength":155840,"byteStride":4,"target":34962},{"buffer":0,"byteOffset":623360,"byteLength":155840,"byteStride":4,"target":34962},{"buffer":0,"byteOffset":779200,"byteLength":412416,"target":34963}],"accessors":[{"bufferView":0,"byteOffset":0,"componentType":5120,"count":12050,"type":"VEC3","normalized":true},{"bufferView":1,"byteOffset":0,"componentType":5123,"count":12050,"type":"VEC3","min":[0,0,0],"max":[15092,15139,7662]},{"bufferView":2,"byteOffset":0,"componentType":5120,"count":12050,"type":"VEC4","normalized":true},{"bufferView":3,"byteOffset":0,"componentType":5123,"count":12050,"type":"VEC2","normalized":true},{"bufferView":4,"byteOffset":0,"componentType":5123,"count":67872,"type":"SCALAR"},{"bufferView":0,"byteOffset":48200,"componentType":5120,"count":738,"type":"VEC3","normalized":true},{"bufferView":1,"byteOffset":96400,"componentType":5123,"count":738,"type":"VEC3","min":[990,4170,2684],"max":[13709,11035,6598]},{"bufferView":2,"byteOffset":48200,"componentType":5120,"count":738,"type":"VEC4","normalized":true},{"bufferView":3,"byteOffset":48200,"componentType":5123,"count":738,"type":"VEC2","normalized":true},{"bufferView":4,"byteOffset":135744,"componentType":5123,"count":3744,"type":"SCALAR"},{"bufferView":0,"byteOffset":51152,"componentType":5120,"count":9501,"type":"VEC3","normalized":true},{"bufferView":1,"byteOffset":102304,"componentType":5123,"count":9501,"type":"VEC3","min":[11444,57,4429],"max":[14223,6183,7490]},{"bufferView":2,"byteOffset":51152,"componentType":5120,"count":9501,"type":"VEC4","normalized":true},{"bufferView":3,"byteOffset":51152,"componentType":5123,"count":9501,"type":"VEC2","normalized":true},{"bufferView":4,"byteOffset":143232,"componentType":5123,"count":48048,"type":"SCALAR"},{"bufferView":0,"byteOffset":89156,"componentType":5120,"count":5427,"type":"VEC3","normalized":true},{"bufferView":1,"byteOffset":178312,"componentType":5123,"count":5427,"type":"VEC3","min":[13833,102,6523],"max":[16383,2630,9131]},{"bufferView":2,"byteOffset":89156,"componentType":5120,"count":5427,"type":"VEC4","normalized":true},{"bufferView":3,"byteOffset":89156,"componentType":5123,"count":5427,"type":"VEC2","normalized":true},{"bufferView":4,"byteOffset":239328,"componentType":5123,"count":28608,"type":"SCALAR"},{"bufferView":0,"byteOffset":110864,"componentType":5120,"count":5774,"type":"VEC3","normalized":true},{"bufferView":1,"byteOffset":221728,"componentType":5123,"count":5774,"type":"VEC3","min":[9254,127,6263],"max":[11828,3567,8891]},{"bufferView":2,"byteOffset":110864,"componentType":5120,"count":5774,"type":"VEC4","normalized":true},{"bufferView":3,"byteOffset":110864,"componentType":5123,"count":5774,"type":"VEC2","normalized":true},{"bufferView":4,"byteOffset":296544,"componentType":5123,"count":30000,"type":"SCALAR"},{"bufferView":0,"byteOffset":133960,"componentType":5120,"count":5470,"type":"VEC3","normalized":true},{"bufferView":1,"byteOffset":267920,"componentType":5123,"count":5470,"type":"VEC3","min":[7087,36,7435],"max":[9734,2039,10076]},{"bufferView":2,"byteOffset":133960,"componentType":5120,"count":5470,"type":"VEC4","normalized":true},{"bufferView":3,"byteOffset":133960,"componentType":5123,"count":5470,"type":"VEC2","normalized":true},{"bufferView":4,"byteOffset":356544,"componentType":5123,"count":27936,"type":"SCALAR"}],"samplers":[{"magFilter":9729,"minFilter":9987}],"images":[{"uri":"textures/Jack_tree_baseColor.png"},{"uri":"textures/Jack_tree_metallicRoughness.png"},{"uri":"textures/Jack_tree_emissive.png"},{"uri":"textures/Jack_tree_normal.png"},{"uri":"textures/Jack_tree_pumpkin_baseColor.png"},{"uri":"textures/Jack_tree_pumpkin_metallicRoughness.png"},{"uri":"textures/Jack_tree_pumpkin_normal.png"},{"uri":"textures/jack_tower_baseColor.png"},{"uri":"textures/jack_tower_metallicRoughness.png"},{"uri":"textures/jack_tower_emissive.png"},{"uri":"textures/jack_tower_normal.png"},{"uri":"textures/Jack_o_lerntern_baseColor.png"},{"uri":"textures/Jack_o_lerntern_metallicRoughness.png"},{"uri":"textures/Jack_o_lerntern_emissive.png"},{"uri":"textures/Jack_o_lerntern_normal.png"},{"uri":"textures/Jack_o_lerntern_long_baseColor.png"},{"uri":"textures/Jack_o_lerntern_long_metallicRoughness.png"},{"uri":"textures/Jack_o_lerntern_long_emissive.png"},{"uri":"textures/Jack_o_lerntern_long_normal.png"},{"uri":"textures/Jack_o_lerntern_oblong_baseColor.png"},{"uri":"textures/Jack_o_lerntern_oblong_metallicRoughness.png"},{"uri":"textures/Jack_o_lerntern_oblong_emissive.png"},{"uri":"textures/Jack_o_lerntern_oblong_normal.png"}],"textures":[{"sampler":0,"source":0},{"sampler":0,"source":1},{"sampler":0,"source":2},{"sampler":0,"source":3},{"sampler":0,"source":4},{"sampler":0,"source":5},{"sampler":0,"source":6},{"sampler":0,"source":7},{"sampler":0,"source":8},{"sampler":0,"source":9},{"sampler":0,"source":10},{"sampler":0,"source":11},{"sampler":0,"source":12},{"sampler":0,"source":13},{"sampler":0,"source":14},{"sampler":0,"source":15},{"sampler":0,"source":16},{"sampler":0,"source":17},{"sampler":0,"source":18},{"sampler":0,"source":19},{"sampler":0,"source":20},{"sampler":0,"source":21},{"sampler":0,"source":22}],"materials":[{"name":"Jack_tree","pbrMetallicRoughness":{"baseColorTexture":{"index":0,"extensions":{"KHR_texture_transform":{"offset":[0.00358900009,0.00516000018],"scale":[15.8085623,15.8744497]}}},"metallicFactor":0,"metallicRoughnessTexture":{"index":1,"extensions":{"KHR_texture_transform":{"offset":[0.00358900009,0.00516000018],"scale":[15.8085623,15.8744497]}}}},"normalTexture":{"index":3,"extensions":{"KHR_texture_transform":{"offset":[0.00358900009,0.00516000018],"scale":[15.8085623,15.8744497]}}},"occlusionTexture":{"index":1,"extensions":{"KHR_texture_transform":{"offset":[0.00358900009,0.00516000018],"scale":[15.8085623,15.8744497]}}},"emissiveTexture":{"index":2,"extensions":{"KHR_texture_transform":{"offset":[0.00358900009,0.00516000018],"scale":[15.8085623,15.8744497]}}},"emissiveFactor":[1,1,1],"doubleSided":true},{"name":"Jack_tree_pumpkin","pbrMetallicRoughness":{"baseColorTexture":{"index":4,"extensions":{"KHR_texture_transform":{"offset":[0.0334290005,0.0233670007],"scale":[12.8234949,15.4890652]}}},"metallicFactor":0,"metallicRoughnessTexture":{"index":5,"extensions":{"KHR_texture_transform":{"offset":[0.0334290005,0.0233670007],"scale":[12.8234949,15.4890652]}}}},"normalTexture":{"index":6,"extensions":{"KHR_texture_transform":{"offset":[0.0334290005,0.0233670007],"scale":[12.8234949,15.4890652]}}},"occlusionTexture":{"index":5,"extensions":{"KHR_texture_transform":{"offset":[0.0334290005,0.0233670007],"scale":[12.8234949,15.4890652]}}},"doubleSided":true},{"name":"jack_tower","pbrMetallicRoughness":{"baseColorTexture":{"index":7,"extensions":{"KHR_texture_transform":{"offset":[0.0101360371,0.0106444368],"scale":[15.7506504,15.7355785]}}},"metallicFactor":0,"metallicRoughnessTexture":{"index":8,"extensions":{"KHR_texture_transform":{"offset":[0.0101360371,0.0106444368],"scale":[15.7506504,15.7355785]}}}},"normalTexture":{"index":10,"extensions":{"KHR_texture_transform":{"offset":[0.0101360371,0.0106444368],"scale":[15.7506504,15.7355785]}}},"occlusionTexture":{"index":8,"extensions":{"KHR_texture_transform":{"offset":[0.0101360371,0.0106444368],"scale":[15.7506504,15.7355785]}}},"emissiveTexture":{"index":9,"extensions":{"KHR_texture_transform":{"offset":[0.0101360371,0.0106444368],"scale":[15.7506504,15.7355785]}}},"emissiveFactor":[1,1,1],"doubleSided":true},{"name":"Jack_o_lerntern","pbrMetallicRoughness":{"baseColorTexture":{"index":11,"extensions":{"KHR_texture_transform":{"offset":[0.00542599987,0.010586],"scale":[15.677124,15.6792202]}}},"metallicFactor":0,"metallicRoughnessTexture":{"index":12,"extensions":{"KHR_texture_transform":{"offset":[0.00542599987,0.010586],"scale":[15.677124,15.6792202]}}}},"normalTexture":{"index":14,"extensions":{"KHR_texture_transform":{"offset":[0.00542599987,0.010586],"scale":[15.677124,15.6792202]}}},"occlusionTexture":{"index":12,"extensions":{"KHR_texture_transform":{"offset":[0.00542599987,0.010586],"scale":[15.677124,15.6792202]}}},"emissiveTexture":{"index":13,"extensions":{"KHR_texture_transform":{"offset":[0.00542599987,0.010586],"scale":[15.677124,15.6792202]}}},"emissiveFactor":[1,1,1],"doubleSided":true},{"name":"Jack_o_lerntern_long","pbrMetallicRoughness":{"baseColorTexture":{"index":15,"extensions":{"KHR_texture_transform":{"offset":[0.0172920004,0.0100659998],"scale":[15.6357546,15.6337223]}}},"metallicFactor":0,"metallicRoughnessTexture":{"index":16,"extensions":{"KHR_texture_transform":{"offset":[0.0172920004,0.0100659998],"scale":[15.6357546,15.6337223]}}}},"normalTexture":{"index":18,"extensions":{"KHR_texture_transform":{"offset":[0.0172920004,0.0100659998],"scale":[15.6357546,15.6337223]}}},"occlusionTexture":{"index":16,"extensions":{"KHR_texture_transform":{"offset":[0.0172920004,0.0100659998],"scale":[15.6357546,15.6337223]}}},"emissiveTexture":{"index":17,"extensions":{"KHR_texture_transform":{"offset":[0.0172920004,0.0100659998],"scale":[15.6357546,15.6337223]}}},"emissiveFactor":[1,1,1],"doubleSided":true},{"name":"Jack_o_lerntern_oblong","pbrMetallicRoughness":{"baseColorTexture":{"index":19,"extensions":{"KHR_texture_transform":{"offset":[0.00469399989,0.0118570002],"scale":[15.6168709,15.64779]}}},"metallicFactor":0,"metallicRoughnessTexture":{"index":20,"extensions":{"KHR_texture_transform":{"offset":[0.00469399989,0.0118570002],"scale":[15.6168709,15.64779]}}}},"normalTexture":{"index":22,"extensions":{"KHR_texture_transform":{"offset":[0.00469399989,0.0118570002],"scale":[15.6168709,15.64779]}}},"occlusionTexture":{"index":20,"extensions":{"KHR_texture_transform":{"offset":[0.00469399989,0.0118570002],"scale":[15.6168709,15.64779]}}},"emissiveTexture":{"index":21,"extensions":{"KHR_texture_transform":{"offset":[0.00469399989,0.0118570002],"scale":[15.6168709,15.64779]}}},"emissiveFactor":[1,1,1],"doubleSided":true}],"meshes":[{"primitives":[{"attributes":{"NORMAL":0,"POSITION":1,"TANGENT":2,"TEXCOORD_0":3},"indices":4,"material":0},{"attributes":{"NORMAL":5,"POSITION":6,"TANGENT":7,"TEXCOORD_0":8},"indices":9,"material":1},{"attributes":{"NORMAL":10,"POSITION":11,"TANGENT":12,"TEXCOORD_0":13},"indices":14,"material":2},{"attributes":{"NORMAL":15,"POSITION":16,"TANGENT":17,"TEXCOORD_0":18},"indices":19,"material":3},{"attributes":{"NORMAL":20,"POSITION":21,"TANGENT":22,"TEXCOORD_0":23},"indices":24,"material":4},{"attributes":{"NORMAL":25,"POSITION":26,"TANGENT":27,"TEXCOORD_0":28},"indices":29,"material":5}]}],"nodes":[{"mesh":0,"translation":[-4.22604752,-0.626035273,-2.02889252],"scale":[0.000336662342,0.000336662342,0.000336662342]}],"scenes":[{"name":"Sketchfab_Scene","nodes":[0]}],"scene":0}