{
  "accessors": [
    {
      "bufferView": 2,
      "componentType": 5126,
      "count": 12050,
      "max": [
        0.8550002574920654,
        4.4706926345825195,
        0.5504580140113831
      ],
      "min": [
        -4.226047515869141,
        -0.6260352730751038,
        -2.0288925170898438
      ],
      "type": "VEC3"
    },
    {
      "bufferView": 2,
      "byteOffset": 144600,
      "componentType": 5126,
      "count": 12050,
      "max": [
        0.9993810057640076,
        0.9997158646583557,
        0.9995551705360413
      ],
      "min": [
        -0.9998673796653748,
        -0.9998984932899475,
        -0.9998275637626648
      ],
      "type": "VEC3"
    },
    {
      "bufferView": 3,
      "componentType": 5126,
      "count": 12050,
      "max": [
        0.999933660030365,
        0.9999399781227112,
        0.9999976754188538,
        1.0
      ],
      "min": [
        -0.9999955892562866,
        -0.9999412298202515,
        -0.9999117255210876,
        -1.0
      ],
      "type": "VEC4"
    },
    {
      "bufferView": 1,
      "componentType": 5126,
      "count": 12050,
      "max": [
        0.9913979768753052,
        0.9970859885215759
      ],
      "min": [
        0.0035890000872313976,
        0.005160000175237656
      ],
      "type": "VEC2"
    },
    {
      "bufferView": 1,
      "byteOffset": 96400,
      "componentType": 5126,
      "count": 12050,
      "max": [
        0.9913979768753052,
        0.9970859885215759
      ],
      "min": [
        0.0035890000872313976,
        0.005160000175237656
      ],
      "type": "VEC2"
    },
    {
      "bufferView": 0,
      "componentType": 5125,
      "count": 67872,
      "type": "SCALAR"
    },
    {
      "bufferView": 2,
      "byteOffset": 289200,
      "componentType": 5126,
      "count": 738,
      "max": [
        0.3892255425453186,
        3.088984966278076,
        0.19238537549972534
      ],
      "min": [
        -3.89261531829834,
        0.7779526114463806,
        -1.1252654790878296
      ],
      "type": "VEC3"
    },
    {
      "bufferView": 2,
      "byteOffset": 298056,
      "componentType": 5126,
      "count": 738,
      "max": [
        0.9999745488166809,
        0.999525785446167,
        1.0
      ],
      "min": [
        -0.9999974370002747,
        -0.9997774362564087,
        -0.9997439384460449
      ],
      "type": "VEC3"
    },
    {
      "bufferView": 3,
      "byteOffset": 192800,
      "componentType": 5126,
      "count": 738,
      "max": [
        1.0,
        0.4075857996940613,
        0.9999435544013977,
        1.0
      ],
      "min": [
        -0.999988317489624,
        -0.4189470410346985,
        -0.9999930262565613,
        1.0
      ],
      "type": "VEC4"
    },
    {
      "bufferView": 1,
      "byteOffset": 192800,
      "componentType": 5126,
      "count": 738,
      "max": [
        0.8347139954566956,
        0.991212010383606
      ],
      "min": [
        0.03342900052666664,
        0.023367000743746758
      ],
      "type": "VEC2"
    },
    {
      "bufferView": 1,
      "byteOffset": 198704,
      "componentType": 5126,
      "count": 738,
      "max": [
        0.8347139954566956,
        0.991212010383606
      ],
      "min": [
        0.03342900052666664,
        0.023367000743746758
      ],
      "type": "VEC2"
    },
    {
      "bufferView": 0,
      "byteOffset": 271488,
      "componentType": 5125,
      "count": 3744,
      "type": "SCALAR"
    },
    {
      "bufferView": 2,
      "byteOffset": 306912,
      "componentType": 5126,
      "count": 9501,
      "max": [
        0.5621533393859863,
        1.4555917978286743,
        0.4927767515182495
      ],
      "min": [
        -0.37342560291290283,
        -0.6066809296607971,
        -0.5378155708312988
      ],
      "type": "VEC3"
    },
    {
      "bufferView": 2,
      "byteOffset": 420924,
      "componentType": 5126,
      "count": 9501,
      "max": [
        0.9999746680259705,
        0.9999776482582092,
        0.9999827146530151
      ],
      "min": [
        -0.9999826550483704,
        -0.9999620914459229,
        -0.9999876022338867
      ],
      "type": "VEC3"
    },
    {
      "bufferView": 3,
      "byteOffset": 204608,
      "componentType": 5126,
      "count": 9501,
      "max": [
        0.9999993443489075,
        0.9998706579208374,
        0.9998934864997864,
        1.0
      ],
      "min": [
        -0.9999992847442627,
        -0.9999568462371826,
        -0.9998746514320374,
        -1.0
      ],
      "type": "VEC4"
    },
    {
      "bufferView": 1,
      "byteOffset": 204608,
      "componentType": 5126,
      "count": 9501,
      "max": [
        0.9943263530731201,
        0.993893027305603
      ],
      "min": [
        0.01013603713363409,
        0.010644436813890934
      ],
      "type": "VEC2"
    },
    {
      "bufferView": 1,
      "byteOffset": 280616,
      "componentType": 5126,
      "count": 9501,
      "max": [
        0.9943263530731201,
        0.993893027305603
      ],
      "min": [
        0.01013603713363409,
        0.010644436813890934
      ],
      "type": "VEC2"
    },
    {
      "bufferView": 0,
      "byteOffset": 286464,
      "componentType": 5125,
      "count": 48048,
      "type": "SCALAR"
    },
    {
      "bufferView": 2,
      "byteOffset": 534936,
      "componentType": 5126,
      "count": 5427,
      "max": [
        1.2894914150238037,
        0.25937363505363464,
        1.0450680255889893
      ],
      "min": [
        0.4310073256492615,
        -0.5917516350746155,
        0.1669924557209015
      ],
      "type": "VEC3"
    },
    {
      "bufferView": 2,
      "byteOffset": 600060,
      "componentType": 5126,
      "count": 5427,
      "max": [
        0.9998416900634766,
        0.9999727606773376,
        0.9998796582221985
      ],
      "min": [
        -0.9999642968177795,
        -0.9999381303787231,
        -0.9999018907546997
      ],
      "type": "VEC3"
    },
    {
      "bufferView": 3,
      "byteOffset": 356624,
      "componentType": 5126,
      "count": 5427,
      "max": [
        0.9999986290931702,
        0.9997589588165283,
        0.9999071359634399,
        1.0
      ],
      "min": [
        -0.9999604821205139,
        -0.999833345413208,
        -0.9999918937683105,
        -1.0
      ],
      "type": "VEC4"
    },
    {
      "bufferView": 1,
      "byteOffset": 356624,
      "componentType": 5126,
      "count": 5427,
      "max": [
        0.9850220084190369,
        0.9903129935264587
      ],
      "min": [
        0.0054259998723864555,
        0.010586000047624111
      ],
      "type": "VEC2"
    },
    {
      "bufferView": 1,
      "byteOffset": 400040,
      "componentType": 5126,
      "count": 5427,
      "max": [
        0.9850220084190369,
        0.9903129935264587
      ],
      "min": [
        0.0054259998723864555,
        0.010586000047624111
      ],
      "type": "VEC2"
    },
    {
      "bufferView": 0,
      "byteOffset": 478656,
      "componentType": 5125,
      "count": 28608,
      "type": "SCALAR"
    },
    {
      "bufferView": 2,
      "byteOffset": 665184,
      "componentType": 5126,
      "count": 5774,
      "max": [
        -0.24417276680469513,
        0.574799120426178,
        0.9642218351364136
      ],
      "min": [
        -1.1105737686157227,
        -0.5831180810928345,
        0.07973003387451172
      ],
      "type": "VEC3"
    },
    {
      "bufferView": 2,
      "byteOffset": 734472,
      "componentType": 5126,
      "count": 5774,
      "max": [
        0.9990715384483337,
        0.9997264742851257,
        0.9998446702957153
      ],
      "min": [
        -0.9999904632568359,
        -0.99991375207901,
        -0.9999198317527771
      ],
      "type": "VEC3"
    },
    {
      "bufferView": 3,
      "byteOffset": 443456,
      "componentType": 5126,
      "count": 5774,
      "max": [
        0.9999978542327881,
        0.9994105696678162,
        0.9998531341552734,
        1.0
      ],
      "min": [
        -0.9989210963249207,
        -0.9991821646690369,
        -0.9999651908874512,
        1.0
      ],
      "type": "VEC4"
    },
    {
      "bufferView": 1,
      "byteOffset": 443456,
      "componentType": 5126,
      "count": 5774,
      "max": [
        0.9943029880523682,
        0.9869499802589417
      ],
      "min": [
        0.017292000353336334,
        0.010065999813377857
      ],
      "type": "VEC2"
    },
    {
      "bufferView": 1,
      "byteOffset": 489648,
      "componentType": 5126,
      "count": 5774,
      "max": [
        0.9943029880523682,
        0.9869499802589417
      ],
      "min": [
        0.017292000353336334,
        0.010065999813377857
      ],
      "type": "VEC2"
    },
    {
      "bufferView": 0,
      "byteOffset": 593088,
      "componentType": 5125,
      "count": 30000,
      "type": "SCALAR"
    },
    {
      "bufferView": 2,
      "byteOffset": 803760,
      "componentType": 5126,
      "count": 5470,
      "max": [
        -0.949127197265625,
        0.06046127527952194,
        1.3632243871688843
      ],
      "min": [
        -1.8402706384658813,
        -0.6139352917671204,
        0.47434067726135254
      ],
      "type": "VEC3"
    },
    {
      "bufferView": 2,
      "byteOffset": 869400,
      "componentType": 5126,
      "count": 5470,
      "max": [
        0.9999523758888245,
        0.9999284148216248,
        0.9994103312492371
      ],
      "min": [
        -0.9998238682746887,
        -0.9997478127479553,
        -0.9999014139175415
      ],
      "type": "VEC3"
    },
    {
      "bufferView": 3,
      "byteOffset": 535840,
      "componentType": 5126,
      "count": 5470,
      "max": [
        0.9999876618385315,
        0.9999955296516418,
        0.9999768137931824,
        1.0
      ],
      "min": [
        -0.9999384880065918,
        -0.9981842637062073,
        -0.999719500541687,
        -1.0
      ],
      "type": "VEC4"
    },
    {
      "bufferView": 1,
      "byteOffset": 535840,
      "componentType": 5126,
      "count": 5470,
      "max": [
        0.980525016784668,
        0.9896199703216553
      ],
      "min": [
        0.004693999886512756,
        0.011857000179588795
      ],
      "type": "VEC2"
    },
    {
      "bufferView": 1,
      "byteOffset": 579600,
      "componentType": 5126,
      "count": 5470,
      "max": [
        0.980525016784668,
        0.9896199703216553
      ],
      "min": [
        0.004693999886512756,
        0.011857000179588795
      ],
      "type": "VEC2"
    },
    {
      "bufferView": 0,
      "byteOffset": 713088,
      "componentType": 5125,
      "count": 27936,
      "type": "SCALAR"
    }
  ],
  "asset": {
    "extras": {
      "author": "Sachi.Nishimura (https://sketchfab.com/petit.peache)",
      "license": "CC-BY-4.0 (http://creativecommons.org/licenses/by/4.0/)",
      "source": "https://sketchfab.com/3d-models/jack-o-lantern-d0a363c8b6c542da8a1f5b7d85bee38d",
      "title": "Jack-o'-Lantern"
    },
    "generator": "Sketchfab-12.66.0",
    "version": "2.0"
  },
  "bufferViews": [
    {
      "buffer": 0,
      "byteLength": 824832,
      "name": "floatBufferViews",
      "target": 34963
    },
    {
      "buffer": 0,
      "byteLength": 623360,
      "byteOffset": 824832,
      "byteStride": 8,
      "name": "floatBufferViews",
      "target": 34962
    },
    {
      "buffer": 0,
      "byteLength": 935040,
      "byteOffset": 1448192,
      "byteStride": 12,
      "name": "floatBufferViews",
      "target": 34962
    },
    {
      "buffer": 0,
      "byteLength": 623360,
      "byteOffset": 2383232,
      "byteStride": 16,
      "name": "floatBufferViews",
      "target": 34962
    }
  ],
  "buffers": [
    {
      "byteLength": 3006592,
      "uri": "scene.bin"
    }
  ],
  "images": [
    {
      "uri": "textures/Jack_tree_baseColor.png"
    },
    {
      "uri": "textures/Jack_tree_metallicRoughness.png"
    },
    {
      "uri": "textures/Jack_tree_emissive.png"
    },
    {
      "uri": "textures/Jack_tree_normal.png"
    },
    {
      "uri": "textures/Jack_tree_pumpkin_baseColor.png"
    },
    {
      "uri": "textures/Jack_tree_pumpkin_metallicRoughness.png"
    },
    {
      "uri": "textures/Jack_tree_pumpkin_normal.png"
    },
    {
      "uri": "textures/jack_tower_baseColor.png"
    },
    {
      "uri": "textures/jack_tower_metallicRoughness.png"
    },
    {
      "uri": "textures/jack_tower_emissive.png"
    },
    {
      "uri": "textures/jack_tower_normal.png"
    },
    {
      "uri": "textures/Jack_o_lerntern_baseColor.png"
    },
    {
      "uri": "textures/Jack_o_lerntern_metallicRoughness.png"
    },
    {
      "uri": "textures/Jack_o_lerntern_emissive.png"
    },
    {
      "uri": "textures/Jack_o_lerntern_normal.png"
    },
    {
      "uri": "textures/Jack_o_lerntern_long_baseColor.png"
    },
    {
      "uri": "textures/Jack_o_lerntern_long_metallicRoughness.png"
    },
    {
      "uri": "textures/Jack_o_lerntern_long_emissive.png"
    },
    {
      "uri": "textures/Jack_o_lerntern_long_normal.png"
    },
    {
      "uri": "textures/Jack_o_lerntern_oblong_baseColor.png"
    },
    {
      "uri": "textures/Jack_o_lerntern_oblong_metallicRoughness.png"
    },
    {
      "uri": "textures/Jack_o_lerntern_oblong_emissive.png"
    },
    {
      "uri": "textures/Jack_o_lerntern_oblong_normal.png"
    }
  ],
  "materials": [
    {
      "doubleSided": true,
      "emissiveFactor": [
        1.0,
        1.0,
        1.0
      ],
      "emissiveTexture": {
        "index": 2
      },
      "name": "Jack_tree",
      "normalTexture": {
        "index": 3
      },
      "occlusionTexture": {
        "index": 1
      },
      "pbrMetallicRoughness": {
        "baseColorTexture": {
          "index": 0
        },
        "metallicFactor": 0.0,
        "metallicRoughnessTexture": {
          "index": 1
        }
      }
    },
    {
      "doubleSided": true,
      "name": "Jack_tree_pumpkin",
      "normalTexture": {
        "index": 6
      },
      "occlusionTexture": {
        "index": 5
      },
      "pbrMetallicRoughness": {
        "baseColorTexture": {
          "index": 4
        },
        "metallicFactor": 0.0,
        "metallicRoughnessTexture": {
          "index": 5
        }
      }
    },
    {
      "doubleSided": true,
      "emissiveFactor": [
        1.0,
        1.0,
        1.0
      ],
      "emissiveTexture": {
        "index": 9
      },
      "name": "jack_tower",
      "normalTexture": {
        "index": 10
      },
      "occlusionTexture": {
        "index": 8
      },
      "pbrMetallicRoughness": {
        "baseColorTexture": {
          "index": 7
        },
        "metallicFactor": 0.0,
        "metallicRoughnessTexture": {
          "index": 8
        }
      }
    },
    {
      "doubleSided": true,
      "emissiveFactor": [
        1.0,
        1.0,
        1.0
      ],
      "emissiveTexture": {
        "index": 13
      },
      "name": "Jack_o_lerntern",
      "normalTexture": {
        "index": 14
      },
      "occlusionTexture": {
        "index": 12
      },
      "pbrMetallicRoughness": {
        "baseColorTexture": {
          "index": 11
        },
        "metallicFactor": 0.0,
        "metallicRoughnessTexture": {
          "index": 12
        }
      }
    },
    {
      "doubleSided": true,
      "emissiveFactor": [
        1.0,
        1.0,
        1.0
      ],
      "emissiveTexture": {
        "index": 17
      },
      "name": "Jack_o_lerntern_long",
      "normalTexture": {
        "index": 18
      },
      "occlusionTexture": {
        "index": 16
      },
      "pbrMetallicRoughness": {
        "baseColorTexture": {
          "index": 15
        },
        "metallicFactor": 0.0,
        "metallicRoughnessTexture": {
          "index": 16
        }
      }
    },
    {
      "doubleSided": true,
      "emissiveFactor": [
        1.0,
        1.0,
        1.0
      ],
      "emissiveTexture": {
        "index": 21
      },
      "name": "Jack_o_lerntern_oblong",
      "normalTexture": {
        "index": 22
      },
      "occlusionTexture": {
        "index": 20
      },
      "pbrMetallicRoughness": {
        "baseColorTexture": {
          "index": 19
        },
        "metallicFactor": 0.0,
        "metallicRoughnessTexture": {
          "index": 20
        }
      }
    }
  ],
  "meshes": [
    {
      "name": "Jack_tree_Jack_tree_0",
      "primitives": [
        {
          "attributes": {
            "NORMAL": 1,
            "POSITION": 0,
            "TANGENT": 2,
            "TEXCOORD_0": 3,
            "TEXCOORD_1": 4
          },
          "indices": 5,
          "material": 0,
          "mode": 4
        }
      ]
    },
    {
      "name": "Jack_tree_pumpkin_Jack_tree_pumpkin_0",
      "primitives": [
        {
          "attributes": {
            "NORMAL": 7,
            "POSITION": 6,
            "TANGENT": 8,
            "TEXCOORD_0": 9,
            "TEXCOORD_1": 10
          },
          "indices": 11,
          "material": 1,
          "mode": 4
        }
      ]
    },
    {
      "name": "jack_tower_jack_tower_0",
      "primitives": [
        {
          "attributes": {
            "NORMAL": 13,
            "POSITION": 12,
            "TANGENT": 14,
            "TEXCOORD_0": 15,
            "TEXCOORD_1": 16
          },
          "indices": 17,
          "material": 2,
          "mode": 4
        }
      ]
    },
    {
      "name": "Jack_o_lerntern_Jack_o_lerntern_0",
      "primitives": [
        {
          "attributes": {
            "NORMAL": 19,
            "POSITION": 18,
            "TANGENT": 20,
            "TEXCOORD_0": 21,
            "TEXCOORD_1": 22
          },
          "indices": 23,
          "material": 3,
          "mode": 4
        }
      ]
    },
    {
      "name": "Jack_o_lerntern_long_Jack_o_lerntern_long_0",
      "primitives": [
        {
          "attributes": {
            "NORMAL": 25,
            "POSITION": 24,
            "TANGENT": 26,
            "TEXCOORD_0": 27,
            "TEXCOORD_1": 28
          },
          "indices": 29,
          "material": 4,
          "mode": 4
        }
      ]
    },
    {
      "name": "Jack_o_lerntern_oblong_Jack_o_lerntern_oblong_0",
      "primitives": [
        {
          "attributes": {
            "NORMAL": 31,
            "POSITION": 30,
            "TANGENT": 32,
            "TEXCOORD_0": 33,
            "TEXCOORD_1": 34
          },
          "indices": 35,
          "material": 5,
          "mode": 4
        }
      ]
    }
  ],
  "nodes": [
    {
      "children": [
        1
      ],
      "matrix": [
        1.0,
        0.0,
        0.0,
        0.0,
        0.0,
        2.220446049250313e-16,
        -1.0,
        0.0,
        0.0,
        1.0,
        2.220446049250313e-16,
        0.0,
        0.0,
        0.0,
        0.0,
        1.0
      ],
      "name": "Sketchfab_model"
    },
    {
      "children": [
        2
      ],
      "matrix": [
        1.0,
        0.0,
        0.0,
        0.0,
        0.0,
        0.0,
        1.0,
        0.0,
        0.0,
        -1.0,
        0.0,
        0.0,
        0.0,
        0.0,
        0.0,
        1.0
      ],
      "name": "0a7c3b29117f471c81e76cec448365be.fbx"
    },
    {
      "children": [
        3,
        5,
        7,
        9,
        11,
        13
      ],
      "name": "RootNode"
    },
    {
      "children": [
        4
      ],
      "name": "Jack_tree"
    },
    {
      "mesh": 0,
      "name": "Jack_tree_Jack_tree_0"
    },
    {
      "children": [
        6
      ],
      "name": "Jack_tree_pumpkin"
    },
    {
      "mesh": 1,
      "name": "Jack_tree_pumpkin_Jack_tree_pumpkin_0"
    },
    {
      "children": [
        8
      ],
      "name": "jack_tower"
    },
    {
      "mesh": 2,
      "name": "jack_tower_jack_tower_0"
    },
    {
      "children": [
        10
      ],
      "name": "Jack_o_lerntern"
    },
    {
      "mesh": 3,
      "name": "Jack_o_lerntern_Jack_o_lerntern_0"
    },
    {
      "children": [
        12
      ],
      "name": "Jack_o_lerntern_long"
    },
    {
      "mesh": 4,
      "name": "Jack_o_lerntern_long_Jack_o_lerntern_long_0"
    },
    {
      "children": [
        14
      ],
      "name": "Jack_o_lerntern_oblong"
    },
    {
      "mesh": 5,
      "name": "Jack_o_lerntern_oblong_Jack_o_lerntern_oblong_0"
    }
  ],
  "samplers": [
    {
      "magFilter": 9729,
      "minFilter": 9987,
      "wrapS": 10497,
      "wrapT": 10497
    }
  ],
  "scene": 0,
  "scenes": [
    {
      "name": "Sketchfab_Scene",
      "nodes": [
        0
      ]
    }
  ],
  "textures": [
    {
      "sampler": 0,
      "source": 0
    },
    {
      "sampler": 0,
      "source": 1
    },
    {
      "sampler": 0,
      "source": 2
    },
    {
      "sampler": 0,
      "source": 3
    },
    {
      "sampler": 0,
      "source": 4
    },
    {
      "sampler": 0,
      "source": 5
    },
    {
      "sampler": 0,
      "source": 6
    },
    {
      "sampler": 0,
      "source": 7
    },
    {
      "sampler": 0,
      "source": 8
    },
    {
      "sampler": 0,
      "source": 9
    },
    {
      "sampler": 0,
      "source": 10
    },
    {
      "sampler": 0,
      "source": 11
    },
    {
      "sampler": 0,
      "source": 12
    },
    {
      "sampler": 0,
      "source": 13
    },
    {
      "sampler": 0,
      "source": 14
    },
    {
      "sampler": 0,
      "source": 15
    },
    {
      "sampler": 0,
      "source": 16
    },
    {
      "sampler": 0,
      "source": 17
    },
    {
      "sampler": 0,
      "source": 18
    },
    {
      "sampler": 0,
      "source": 19
    },
    {
      "sampler": 0,
      "source": 20
    },
    {
      "sampler": 0,
      "source": 21
    },
    {
      "sampler": 0,
      "source": 22
    }
  ]
}
