{
  "accessors": [
    {
      "bufferView": 2,
      "componentType": 5126,
      "count": 65532,
      "max": [
        1.2179629802703857,
        -1.8853379487991333,
        1.0512629747390747
      ],
      "min": [
        -1.294132947921753,
        -3.352181911468506,
        -1.7031580209732056
      ],
      "type": "VEC3"
    },
    {
      "bufferView": 2,
      "byteOffset": 786384,
      "componentType": 5126,
      "count": 65532,
      "max": [
        0.9999927878379822,
        0.9999840259552002,
        0.9998987913131714
      ],
      "min": [
        -0.9999977350234985,
        -0.9972307682037354,
        -0.9999226331710815
      ],
      "type": "VEC3"
    },
    {
      "bufferView": 1,
      "componentType": 5126,
      "count": 65532,
      "max": [
        0.9916809797286987,
        0.9918760061264038
      ],
      "min": [
        0.008166000247001648,
        0.008057000115513802
      ],
      "type": "VEC2"
    },
    {
      "bufferView": 0,
      "componentType": 5125,
      "count": 333708,
      "type": "SCALAR"
    },
    {
      "bufferView": 2,
      "byteOffset": 1572768,
      "componentType": 5126,
      "count": 28460,
      "max": [
        0.9089469909667969,
        -2.004801034927368,
        1.0245449542999268
      ],
      "min": [
        -1.0096460580825806,
        -3.082515001296997,
        -1.2524100542068481
      ],
      "type": "VEC3"
    },
    {
      "bufferView": 2,
      "byteOffset": 1914288,
      "componentType": 5126,
      "count": 28460,
      "max": [
        0.999980628490448,
        0.9998148679733276,
        0.9996510148048401
      ],
      "min": [
        -0.9999451041221619,
        -0.8042792081832886,
        -0.9987872242927551
      ],
      "type": "VEC3"
    },
    {
      "bufferView": 1,
      "byteOffset": 524256,
      "componentType": 5126,
      "count": 28460,
      "max": [
        0.9848120212554932,
        0.7532979846000671
      ],
      "min": [
        0.008061000145971775,
        0.028370000422000885
      ],
      "type": "VEC2"
    },
    {
      "bufferView": 0,
      "byteOffset": 1334832,
      "componentType": 5125,
      "count": 155382,
      "type": "SCALAR"
    },
    {
      "bufferView": 2,
      "byteOffset": 2255808,
      "componentType": 5126,
      "count": 22361,
      "max": [
        1.3446550369262695,
        -1.8849400281906128,
        1.0463969707489014
      ],
      "min": [
        -1.294132947921753,
        -3.352181911468506,
        -1.5832899808883667
      ],
      "type": "VEC3"
    },
    {
      "bufferView": 2,
      "byteOffset": 2524140,
      "componentType": 5126,
      "count": 22361,
      "max": [
        1.0,
        0.9998553991317749,
        0.999962568283081
      ],
      "min": [
        -0.9999875426292419,
        -0.9991986155509949,
        -0.9998458027839661
      ],
      "type": "VEC3"
    },
    {
      "bufferView": 1,
      "byteOffset": 751936,
      "componentType": 5126,
      "count": 22361,
      "max": [
        0.9916989803314209,
        0.9916719794273376
      ],
      "min": [
        0.008314999751746655,
        0.008305000141263008
      ],
      "type": "VEC2"
    },
    {
      "bufferView": 0,
      "byteOffset": 1956360,
      "componentType": 5125,
      "count": 107688,
      "type": "SCALAR"
    },
    {
      "bufferView": 2,
      "byteOffset": 2792472,
      "componentType": 5126,
      "count": 2676,
      "max": [
        1.2779719829559326,
        -1.9469599723815918,
        0.990231990814209
      ],
      "min": [
        -1.0097370147705078,
        -3.274243116378784,
        -1.52285897731781
      ],
      "type": "VEC3"
    },
    {
      "bufferView": 2,
      "byteOffset": 2824584,
      "componentType": 5126,
      "count": 2676,
      "max": [
        0.9999953508377075,
        0.9987354874610901,
        0.9992561340332031
      ],
      "min": [
        -0.9992826581001282,
        -0.9922612309455872,
        -0.9998705387115479
      ],
      "type": "VEC3"
    },
    {
      "bufferView": 1,
      "byteOffset": 930824,
      "componentType": 5126,
      "count": 2676,
      "max": [
        0.9879390001296997,
        0.9900069832801819
      ],
      "min": [
        0.010203000158071518,
        0.011944999918341637
      ],
      "type": "VEC2"
    },
    {
      "bufferView": 0,
      "byteOffset": 2387112,
      "componentType": 5125,
      "count": 9585,
      "type": "SCALAR"
    },
    {
      "bufferView": 2,
      "byteOffset": 2856696,
      "componentType": 5126,
      "count": 707,
      "max": [
        1.1268980503082275,
        -1.8874659538269043,
        0.9562569856643677
      ],
      "min": [
        -1.092682957649231,
        -3.3132219314575195,
        -1.486778974533081
      ],
      "type": "VEC3"
    },
    {
      "bufferView": 2,
      "byteOffset": 2865180,
      "componentType": 5126,
      "count": 707,
      "max": [
        0.9989413619041443,
        0.9961649775505066,
        0.9861027598381042
      ],
      "min": [
        -0.9959253668785095,
        -0.9870709776878357,
        -0.9966358542442322
      ],
      "type": "VEC3"
    },
    {
      "bufferView": 1,
      "byteOffset": 952232,
      "componentType": 5126,
      "count": 707,
      "max": [
        0.9882810115814209,
        0.9882749915122986
      ],
      "min": [
        0.01206399966031313,
        0.2652760148048401
      ],
      "type": "VEC2"
    },
    {
      "bufferView": 0,
      "byteOffset": 2425452,
      "componentType": 5125,
      "count": 927,
      "type": "SCALAR"
    }
  ],
  "asset": {
    "extras": {
      "author": "ROBOTKID (https://sketchfab.com/robotkid)",
      "license": "CC-BY-4.0 (http://creativecommons.org/licenses/by/4.0/)",
      "source": "https://sketchfab.com/3d-models/spooky-halloween-display-ce4eda537a6a4579ad05ac7641c13c7e",
      "title": "Spooky Halloween Display"
    },
    "generator": "Sketchfab-12.65.0",
    "version": "2.0"
  },
  "bufferViews": [
    {
      "buffer": 0,
      "byteLength": 2429160,
      "name": "floatBufferViews",
      "target": 34963
    },
    {
      "buffer": 0,
      "byteLength": 957888,
      "byteOffset": 2429160,
      "byteStride": 8,
      "name": "floatBufferViews",
      "target": 34962
    },
    {
      "buffer": 0,
      "byteLength": 2873664,
      "byteOffset": 3387048,
      "byteStride": 12,
      "name": "floatBufferViews",
      "target": 34962
    }
  ],
  "buffers": [
    {
      "byteLength": 6260712,
      "uri": "scene.bin"
    }
  ],
  "extensionsUsed": [
    "KHR_materials_unlit"
  ],
  "images": [
    {
      "uri": "textures/material0000_baseColor.jpeg"
    },
    {
      "uri": "textures/material0001_baseColor.jpeg"
    },
    {
      "uri": "textures/material0002_baseColor.jpeg"
    },
    {
      "uri": "textures/material0003_baseColor.jpeg"
    }
  ],
  "materials": [
    {
      "doubleSided": true,
      "extensions": {
        "KHR_materials_unlit": {}
      },
      "name": "material0000",
      "pbrMetallicRoughness": {
        "baseColorTexture": {
          "index": 0
        },
        "metallicFactor": 0.0
      }
    },
    {
      "doubleSided": true,
      "extensions": {
        "KHR_materials_unlit": {}
      },
      "name": "material0001",
      "pbrMetallicRoughness": {
        "baseColorTexture": {
          "index": 1
        },
        "metallicFactor": 0.0
      }
    },
    {
      "doubleSided": true,
      "extensions": {
        "KHR_materials_unlit": {}
      },
      "name": "material0002",
      "pbrMetallicRoughness": {
        "baseColorTexture": {
          "index": 2
        },
        "metallicFactor": 0.0
      }
    },
    {
      "doubleSided": true,
      "extensions": {
        "KHR_materials_unlit": {}
      },
      "name": "material0003",
      "pbrMetallicRoughness": {
        "baseColorTexture": {
          "index": 3
        },
        "metallicFactor": 0.0
      }
    }
  ],
  "meshes": [
    {
      "name": "Object_0",
      "primitives": [
        {
          "attributes": {
            "NORMAL": 1,
            "POSITION": 0,
            "TEXCOORD_0": 2
          },
          "indices": 3,
          "material": 0,
          "mode": 4
        }
      ]
    },
    {
      "name": "Object_1",
      "primitives": [
        {
          "attributes": {
            "NORMAL": 5,
            "POSITION": 4,
            "TEXCOORD_0": 6
          },
          "indices": 7,
          "material": 0,
          "mode": 4
        }
      ]
    },
    {
      "name": "Object_2",
      "primitives": [
        {
          "attributes": {
            "NORMAL": 9,
            "POSITION": 8,
            "TEXCOORD_0": 10
          },
          "indices": 11,
          "material": 1,
          "mode": 4
        }
      ]
    },
    {
      "name": "Object_3",
      "primitives": [
        {
          "attributes": {
            "NORMAL": 13,
            "POSITION": 12,
            "TEXCOORD_0": 14
          },
          "indices": 15,
          "material": 2,
          "mode": 4
        }
      ]
    },
    {
      "name": "Object_4",
      "primitives": [
        {
          "attributes": {
            "NORMAL": 17,
            "POSITION": 16,
            "TEXCOORD_0": 18
          },
          "indices": 19,
          "material": 3,
          "mode": 4
        }
      ]
    }
  ],
  "nodes": [
    {
      "children": [
        1
      ],
      "matrix": [
        1.0,
        0.0,
        0.0,
        0.0,
        0.0,
        0.7391697764396666,
        0.6735191345214845,
        0.0,
        0.0,
        -0.6735191345214845,
        0.7391697764396666,
        0.0,
        0.0,
        1.3900798559188832,
        4.623144626617432,
        1.0
      ],
      "name": "Sketchfab_model"
    },
    {
      "children": [
        2,
        3,
        4,
        5,
        6
      ],
      "name": "model.obj.cleaner.materialmerger.gles"
    },
    {
      "mesh": 0,
      "name": "Object_2"
    },
    {
      "mesh": 1,
      "name": "Object_3"
    },
    {
      "mesh": 2,
      "name": "Object_4"
    },
    {
      "mesh": 3,
      "name": "Object_5"
    },
    {
      "mesh": 4,
      "name": "Object_6"
    }
  ],
  "samplers": [
    {
      "magFilter": 9729,
      "minFilter": 9987,
      "wrapS": 10497,
      "wrapT": 10497
    }
  ],
  "scene": 0,
  "scenes": [
    {
      "name": "Sketchfab_Scene",
      "nodes": [
        0
      ]
    }
  ],
  "textures": [
    {
      "sampler": 0,
      "source": 0
    },
    {
      "sampler": 0,
      "source": 1
    },
    {
      "sampler": 0,
      "source": 2
    },
    {
      "sampler": 0,
      "source": 3
    }
  ]
}
