{"buffers":[{"uri":"scene.bin","byteLength":3900608}],"asset":{"version":"2.0","generator":"gltfpack 0.19","extras":{"author":"jiayingc (https://sketchfab.com/jiayingc)","license":"CC-BY-4.0 (http://creativecommons.org/licenses/by/4.0/)","source":"https://sketchfab.com/3d-models/cute-cat-with-strawberries-769a5fa758de449e8154a6bbd33e9220","title":"Cute Cat with Strawberries"}},"extensionsUsed":["KHR_mesh_quantization"],"extensionsRequired":["KHR_mesh_quantization"],"bufferViews":[{"buffer":0,"byteOffset":0,"byteLength":387488,"byteStride":4,"target":34962},{"buffer":0,"byteOffset":387488,"byteLength":399368,"byteStride":4,"target":34962},{"buffer":0,"byteOffset":786856,"byteLength":798736,"byteStride":8,"target":34962},{"buffer":0,"byteOffset":1585592,"byteLength":2279424,"target":34963},{"buffer":0,"byteOffset":3865016,"byteLength":35592,"target":34963}],"accessors":[{"bufferView":0,"byteOffset":0,"componentType":5121,"count":96872,"type":"VEC4","normalized":true},{"bufferView":1,"byteOffset":0,"componentType":5120,"count":96872,"type":"VEC3","normalized":true},{"bufferView":2,"byteOffset":0,"componentType":5123,"count":96872,"type":"VEC3","min":[0,0,0],"max":[16383,12057,10023]},{"bufferView":3,"byteOffset":0,"componentType":5125,"count":569856,"type":"SCALAR"},{"bufferView":1,"byteOffset":387488,"componentType":5120,"count":2970,"type":"VEC3","normalized":true},{"bufferView":2,"byteOffset":774976,"componentType":5123,"count":2970,"type":"VEC3","min":[5828,44,4319],"max":[9169,2224,5835]},{"bufferView":4,"byteOffset":0,"componentType":5123,"count":17796,"type":"SCALAR"}],"materials":[{"name":"material_0","pbrMetallicRoughness":{"metallicFactor":0,"roughnessFactor":0.600000024},"doubleSided":true}],"meshes":[{"primitives":[{"attributes":{"COLOR_0":0,"NORMAL":1,"POSITION":2},"indices":3,"material":0},{"attributes":{"NORMAL":4,"POSITION":5},"indices":6,"material":0}]}],"nodes":[{"mesh":0,"translation":[-2.9361558,-0.161348954,-1.20177972],"scale":[0.000390313973,0.000390313973,0.000390313973]}],"scenes":[{"name":"Sketchfab_Scene","nodes":[0]}],"scene":0}