{"buffers":[{"uri":"scene.bin","byteLength":1657256}],"asset":{"version":"2.0","generator":"gltfpack 0.19","extras":{"author":"Léonard_Doye Alias Leoskateman (https://sketchfab.com/leoskateman)","license":"CC-BY-4.0 (http://creativecommons.org/licenses/by/4.0/)","source":"https://sketchfab.com/3d-models/sleepy-comfy-cat-2c2baa9563db4f20ba23f869ec3288dc","title":"Sleepy Comfy Cat"}},"extensionsUsed":["KHR_mesh_quantization","KHR_texture_transform"],"extensionsRequired":["KHR_mesh_quantization"],"bufferViews":[{"buffer":0,"byteOffset":0,"byteLength":239840,"byteStride":4,"target":34962},{"buffer":0,"byteOffset":239840,"byteLength":479680,"byteStride":8,"target":34962},{"buffer":0,"byteOffset":719520,"byteLength":239840,"byteStride":4,"target":34962},{"buffer":0,"byteOffset":959360,"byteLength":697896,"target":34963}],"accessors":[{"bufferView":0,"byteOffset":0,"componentType":5120,"count":59960,"type":"VEC3","normalized":true},{"bufferView":1,"byteOffset":0,"componentType":5123,"count":59960,"type":"VEC3","min":[0,0,0],"max":[16383,5920,15412]},{"bufferView":2,"byteOffset":0,"componentType":5123,"count":59960,"type":"VEC2","normalized":true},{"bufferView":3,"byteOffset":0,"componentType":5123,"count":348948,"type":"SCALAR"}],"samplers":[{"magFilter":9729,"minFilter":9987}],"images":[{"uri":"textures/material0_baseColor.jpeg"}],"textures":[{"sampler":0,"source":0}],"materials":[{"name":"material0","pbrMetallicRoughness":{"baseColorTexture":{"index":0,"extensions":{"KHR_texture_transform":{"offset":[9.25548738e-05,7.90962949e-05],"scale":[16.0004787,14.3184395]}}},"metallicFactor":0,"roughnessFactor":0.947974503},"doubleSided":true}],"meshes":[{"primitives":[{"attributes":{"NORMAL":0,"POSITION":1,"TEXCOORD_0":2},"indices":3,"material":0}]}],"nodes":[{"mesh":0,"translation":[-1.84947097,-0.53503722,-1.81184292],"scale":[0.000188260703,0.000188260703,0.000188260703]}],"scenes":[{"name":"Sketchfab_Scene","nodes":[0]}],"scene":0}