{
    "asset" : {
        "generator" : "Khronos glTF Blender I/O v3.4.50",
        "version" : "2.0"
    },
    "scene" : 0,
    "scenes" : [
        {
            "name" : "Scene",
            "nodes" : [
                8
            ]
        }
    ],
    "nodes" : [
        {
            "mesh" : 0,
            "name" : "Object_8"
        },
        {
            "mesh" : 1,
            "name" : "Object_9"
        },
        {
            "children" : [
                0,
                1
            ],
            "name" : "Bucket.002_1",
            "rotation" : [
                0,
                0.7912296056747437,
                0,
                0.6115192770957947
            ],
            "translation" : [
                -0.0014033913612365723,
                0,
                0
            ]
        },
        {
            "mesh" : 2,
            "name" : "Object_11"
        },
        {
            "children" : [
                3
            ],
            "name" : "Popcorn_2",
            "translation" : [
                0,
                -0.005624331533908844,
                0
            ]
        },
        {
            "children" : [
                2,
                4
            ],
            "name" : "Popcorn Buckets_5"
        },
        {
            "children" : [
                5
            ],
            "name" : "GLTF_SceneRootNode",
            "rotation" : [
                0.70710688829422,
                0,
                0,
                0.7071066498756409
            ]
        },
        {
            "children" : [
                6
            ],
            "name" : "root"
        },
        {
            "children" : [
                7
            ],
            "name" : "Sketchfab_model",
            "rotation" : [
                -0.70710688829422,
                0,
                0,
                0.7071066498756409
            ]
        }
    ],
    "materials" : [
        {
            "doubleSided" : true,
            "name" : "Bucket",
            "pbrMetallicRoughness" : {
                "baseColorTexture" : {
                    "index" : 0
                },
                "metallicFactor" : 0,
                "roughnessFactor" : 0.8227270245552063
            }
        },
        {
            "doubleSided" : true,
            "name" : "white_walter",
            "pbrMetallicRoughness" : {
                "baseColorFactor" : [
                    0.800000011920929,
                    0.800000011920929,
                    0.800000011920929,
                    1
                ],
                "metallicFactor" : 0,
                "roughnessFactor" : 0.5
            }
        },
        {
            "doubleSided" : true,
            "name" : "corn",
            "pbrMetallicRoughness" : {
                "baseColorTexture" : {
                    "index" : 1
                },
                "metallicFactor" : 0,
                "roughnessFactor" : 0.8636360168457031
            }
        }
    ],
    "meshes" : [
        {
            "name" : "Object_2",
            "primitives" : [
                {
                    "attributes" : {
                        "POSITION" : 0,
                        "TEXCOORD_0" : 1,
                        "NORMAL" : 2
                    },
                    "indices" : 3,
                    "material" : 0
                }
            ]
        },
        {
            "name" : "Object_3",
            "primitives" : [
                {
                    "attributes" : {
                        "POSITION" : 4,
                        "TEXCOORD_0" : 5,
                        "NORMAL" : 6
                    },
                    "indices" : 7,
                    "material" : 1
                }
            ]
        },
        {
            "name" : "Object_4",
            "primitives" : [
                {
                    "attributes" : {
                        "POSITION" : 8,
                        "TEXCOORD_0" : 9,
                        "NORMAL" : 10
                    },
                    "indices" : 11,
                    "material" : 2
                }
            ]
        }
    ],
    "textures" : [
        {
            "sampler" : 0,
            "source" : 0
        },
        {
            "sampler" : 0,
            "source" : 1
        }
    ],
    "images" : [
        {
            "bufferView" : 4,
            "mimeType" : "image/jpeg",
            "name" : "Bucket_baseColor"
        },
        {
            "bufferView" : 13,
            "mimeType" : "image/jpeg",
            "name" : "corn_baseColor"
        }
    ],
    "accessors" : [
        {
            "bufferView" : 0,
            "componentType" : 5126,
            "count" : 455,
            "max" : [
                0.12744101881980896,
                0.22188279032707214,
                0.12744103372097015
            ],
            "min" : [
                -0.12744101881980896,
                0.003142556408420205,
                -0.12744101881980896
            ],
            "type" : "VEC3"
        },
        {
            "bufferView" : 1,
            "componentType" : 5126,
            "count" : 455,
            "type" : "VEC2"
        },
        {
            "bufferView" : 2,
            "componentType" : 5126,
            "count" : 455,
            "type" : "VEC3"
        },
        {
            "bufferView" : 3,
            "componentType" : 5123,
            "count" : 2304,
            "type" : "SCALAR"
        },
        {
            "bufferView" : 5,
            "componentType" : 5126,
            "count" : 3183,
            "max" : [
                0.13396750390529633,
                0.22922083735466003,
                0.13396750390529633
            ],
            "min" : [
                -0.13396748900413513,
                -0.0009101292816922069,
                -0.13396750390529633
            ],
            "type" : "VEC3"
        },
        {
            "bufferView" : 6,
            "componentType" : 5126,
            "count" : 3183,
            "type" : "VEC2"
        },
        {
            "bufferView" : 7,
            "componentType" : 5126,
            "count" : 3183,
            "type" : "VEC3"
        },
        {
            "bufferView" : 8,
            "componentType" : 5123,
            "count" : 11904,
            "type" : "SCALAR"
        },
        {
            "bufferView" : 9,
            "componentType" : 5126,
            "count" : 3943,
            "max" : [
                0.12830595672130585,
                0.29110366106033325,
                0.12504906952381134
            ],
            "min" : [
                -0.12793008983135223,
                0.19458678364753723,
                -0.12295476347208023
            ],
            "type" : "VEC3"
        },
        {
            "bufferView" : 10,
            "componentType" : 5126,
            "count" : 3943,
            "type" : "VEC2"
        },
        {
            "bufferView" : 11,
            "componentType" : 5126,
            "count" : 3943,
            "type" : "VEC3"
        },
        {
            "bufferView" : 12,
            "componentType" : 5123,
            "count" : 22185,
            "type" : "SCALAR"
        }
    ],
    "bufferViews" : [
        {
            "buffer" : 0,
            "byteLength" : 5460,
            "byteOffset" : 0,
            "target" : 34962
        },
        {
            "buffer" : 0,
            "byteLength" : 3640,
            "byteOffset" : 5460,
            "target" : 34962
        },
        {
            "buffer" : 0,
            "byteLength" : 5460,
            "byteOffset" : 9100,
            "target" : 34962
        },
        {
            "buffer" : 0,
            "byteLength" : 4608,
            "byteOffset" : 14560,
            "target" : 34963
        },
        {
            "buffer" : 0,
            "byteLength" : 156994,
            "byteOffset" : 19168
        },
        {
            "buffer" : 0,
            "byteLength" : 38196,
            "byteOffset" : 176164,
            "target" : 34962
        },
        {
            "buffer" : 0,
            "byteLength" : 25464,
            "byteOffset" : 214360,
            "target" : 34962
        },
        {
            "buffer" : 0,
            "byteLength" : 38196,
            "byteOffset" : 239824,
            "target" : 34962
        },
        {
            "buffer" : 0,
            "byteLength" : 23808,
            "byteOffset" : 278020,
            "target" : 34963
        },
        {
            "buffer" : 0,
            "byteLength" : 47316,
            "byteOffset" : 301828,
            "target" : 34962
        },
        {
            "buffer" : 0,
            "byteLength" : 31544,
            "byteOffset" : 349144,
            "target" : 34962
        },
        {
            "buffer" : 0,
            "byteLength" : 47316,
            "byteOffset" : 380688,
            "target" : 34962
        },
        {
            "buffer" : 0,
            "byteLength" : 44370,
            "byteOffset" : 428004,
            "target" : 34963
        },
        {
            "buffer" : 0,
            "byteLength" : 485954,
            "byteOffset" : 472376
        }
    ],
    "samplers" : [
        {
            "magFilter" : 9729,
            "minFilter" : 9987
        }
    ],
    "buffers" : [
        {
            "byteLength" : 958332,
            "uri" : "data:application/octet-stream;base64,"
        }
    ]
}
