{"buffers":[{"uri":"scene.bin","byteLength":824304}],"asset":{"version":"2.0","generator":"gltfpack 0.19"},"extensionsUsed":["KHR_mesh_quantization","KHR_texture_transform"],"extensionsRequired":["KHR_mesh_quantization"],"bufferViews":[{"buffer":0,"byteOffset":0,"byteLength":156994},{"buffer":0,"byteOffset":156996,"byteLength":485954},{"buffer":0,"byteOffset":642952,"byteLength":60648,"byteStride":8,"target":34962},{"buffer":0,"byteOffset":703600,"byteLength":17592,"byteStride":4,"target":34962},{"buffer":0,"byteOffset":721192,"byteLength":30324,"byteStride":4,"target":34962},{"buffer":0,"byteOffset":751516,"byteLength":72786,"target":34963}],"accessors":[{"bufferView":2,"byteOffset":0,"componentType":5123,"count":455,"type":"VEC3","min":[373,232,373],"max":[14951,12745,14951]},{"bufferView":3,"byteOffset":0,"componentType":5123,"count":455,"type":"VEC2","normalized":true},{"bufferView":4,"byteOffset":0,"componentType":5120,"count":455,"type":"VEC3","normalized":true},{"bufferView":5,"byteOffset":0,"componentType":5123,"count":2304,"type":"SCALAR"},{"bufferView":2,"byteOffset":3640,"componentType":5123,"count":3183,"type":"VEC3","min":[0,0,0],"max":[15325,13165,15325]},{"bufferView":4,"byteOffset":1820,"componentType":5120,"count":3183,"type":"VEC3","normalized":true},{"bufferView":5,"byteOffset":4608,"componentType":5123,"count":11904,"type":"SCALAR"},{"bufferView":2,"byteOffset":29104,"componentType":5123,"count":3943,"type":"VEC3","min":[424,10862,629],"max":[15082,16383,14816]},{"bufferView":3,"byteOffset":1820,"componentType":5123,"count":3943,"type":"VEC2","normalized":true},{"bufferView":4,"byteOffset":14552,"componentType":5120,"count":3943,"type":"VEC3","normalized":true},{"bufferView":5,"byteOffset":28416,"componentType":5123,"count":22185,"type":"SCALAR"}],"samplers":[{"magFilter":9729,"minFilter":9987}],"images":[{"bufferView":0,"mimeType":"image/jpeg"},{"bufferView":1,"mimeType":"image/jpeg"}],"textures":[{"sampler":0,"source":0},{"sampler":0,"source":1}],"materials":[{"name":"Bucket","pbrMetallicRoughness":{"baseColorTexture":{"index":0,"extensions":{"KHR_texture_transform":{"offset":[-0.134394541,0.00196039677],"scale":[22.5995712,15.8785467]}}},"metallicFactor":0,"roughnessFactor":0.822727025},"doubleSided":true},{"name":"white_walter","pbrMetallicRoughness":{"baseColorFactor":[0.800000012,0.800000012,0.800000012,1],"metallicFactor":0,"roughnessFactor":0.5},"doubleSided":true},{"name":"corn","pbrMetallicRoughness":{"baseColorTexture":{"index":1,"extensions":{"KHR_texture_transform":{"offset":[0.242347032,0.0882595181],"scale":[8.38894272,13.2520647]}}},"metallicFactor":0,"roughnessFactor":0.863636017},"doubleSided":true}],"meshes":[{"primitives":[{"attributes":{"POSITION":0,"TEXCOORD_0":1,"NORMAL":2},"indices":3,"material":0},{"attributes":{"POSITION":4,"NORMAL":5},"indices":6,"material":1},{"attributes":{"POSITION":7,"TEXCOORD_0":8,"NORMAL":9},"indices":10,"material":2}]}],"nodes":[{"mesh":0,"translation":[-0.135348022,-0.000910129165,-0.133944631],"scale":[1.7480892e-05,1.7480892e-05,1.7480892e-05]}],"scenes":[{"name":"Scene","nodes":[0]}],"scene":0}