{"buffers":[{"uri":"scene.bin","byteLength":73112}],"asset":{"version":"2.0","generator":"gltfpack 0.19","extras":{"author":"Lukas Bobor (https://sketchfab.com/LukasBobor)","license":"CC-BY-4.0 (http://creativecommons.org/licenses/by/4.0/)","source":"https://sketchfab.com/3d-models/movie-projector-46684e7df55649388a3573a0b9b5f29b","title":"Movie Projector"}},"extensionsUsed":["KHR_mesh_quantization","KHR_texture_transform"],"extensionsRequired":["KHR_mesh_quantization"],"bufferViews":[{"buffer":0,"byteOffset":0,"byteLength":11416,"byteStride":4,"target":34962},{"buffer":0,"byteOffset":11416,"byteLength":22832,"byteStride":8,"target":34962},{"buffer":0,"byteOffset":34248,"byteLength":11416,"byteStride":4,"target":34962},{"buffer":0,"byteOffset":45664,"byteLength":11416,"byteStride":4,"target":34962},{"buffer":0,"byteOffset":57080,"byteLength":16032,"target":34963}],"accessors":[{"bufferView":0,"byteOffset":0,"componentType":5120,"count":2854,"type":"VEC3","normalized":true},{"bufferView":1,"byteOffset":0,"componentType":5123,"count":2854,"type":"VEC3","min":[0,0,0],"max":[8242,15507,16383]},{"bufferView":2,"byteOffset":0,"componentType":5120,"count":2854,"type":"VEC4","normalized":true},{"bufferView":3,"byteOffset":0,"componentType":5123,"count":2854,"type":"VEC2","normalized":true},{"bufferView":4,"byteOffset":0,"componentType":5123,"count":8016,"type":"SCALAR"}],"samplers":[{"magFilter":9729,"minFilter":9987}],"images":[{"uri":"textures/FilmProjector_baseColor.jpeg"},{"uri":"textures/FilmProjector_metallicRoughness.png"},{"uri":"textures/FilmProjector_normal.jpeg"}],"textures":[{"sampler":0,"source":0},{"sampler":0,"source":1},{"sampler":0,"source":2}],"materials":[{"name":"FilmProjector","pbrMetallicRoughness":{"baseColorTexture":{"index":0,"extensions":{"KHR_texture_transform":{"offset":[0.000638999976,0.000638999976],"scale":[15.9832096,15.8174915]}}},"metallicRoughnessTexture":{"index":1,"extensions":{"KHR_texture_transform":{"offset":[0.000638999976,0.000638999976],"scale":[15.9832096,15.8174915]}}}},"normalTexture":{"index":2,"extensions":{"KHR_texture_transform":{"offset":[0.000638999976,0.000638999976],"scale":[15.9832096,15.8174915]}}},"occlusionTexture":{"index":1,"extensions":{"KHR_texture_transform":{"offset":[0.000638999976,0.000638999976],"scale":[15.9832096,15.8174915]}}},"doubleSided":true}],"meshes":[{"primitives":[{"attributes":{"NORMAL":0,"POSITION":1,"TANGENT":2,"TEXCOORD_0":3},"indices":4,"material":0}]}],"nodes":[{"mesh":0,"translation":[-0.503108025,-0.946527064,-1],"scale":[0.000122077763,0.000122077763,0.000122077763]}],"scenes":[{"name":"Sketchfab_Scene","nodes":[0]}],"scene":0}