{"buffers":[{"uri":"scene.bin","byteLength":485364}],"asset":{"version":"2.0","generator":"gltfpack 0.19","extras":{"author":"Alben Tan (https://sketchfab.com/albentan2012)","license":"CC-BY-4.0 (http://creativecommons.org/licenses/by/4.0/)","source":"https://sketchfab.com/3d-models/sleeping-cat-on-the-bed-1-3d-scan-ae07a741be6944e8ba5e2657069d3aaf","title":"Sleeping Cat On The Bed 1 - 3D scan"}},"extensionsUsed":["KHR_mesh_quantization","KHR_texture_transform"],"extensionsRequired":["KHR_mesh_quantization"],"bufferViews":[{"buffer":0,"byteOffset":0,"byteLength":74632,"byteStride":4,"target":34962},{"buffer":0,"byteOffset":74632,"byteLength":149264,"byteStride":8,"target":34962},{"buffer":0,"byteOffset":223896,"byteLength":74632,"byteStride":4,"target":34962},{"buffer":0,"byteOffset":298528,"byteLength":186834,"target":34963}],"accessors":[{"bufferView":0,"byteOffset":0,"componentType":5120,"count":18658,"type":"VEC3","normalized":true},{"bufferView":1,"byteOffset":0,"componentType":5123,"count":18658,"type":"VEC3","min":[0,0,0],"max":[16383,4056,15258]},{"bufferView":2,"byteOffset":0,"componentType":5123,"count":18658,"type":"VEC2","normalized":true},{"bufferView":3,"byteOffset":0,"componentType":5123,"count":93417,"type":"SCALAR"}],"samplers":[{"magFilter":9729,"minFilter":9987}],"images":[{"uri":"textures/Material_0.006_baseColor.jpeg"}],"textures":[{"sampler":0,"source":0}],"materials":[{"name":"Material_0.006","pbrMetallicRoughness":{"baseColorTexture":{"index":0,"extensions":{"KHR_texture_transform":{"offset":[0.00823003799,0.00651478767],"scale":[15.5274734,15.6101017]}}},"metallicFactor":0}}],"meshes":[{"primitives":[{"attributes":{"NORMAL":0,"POSITION":1,"TEXCOORD_0":2},"indices":3,"material":0}]}],"nodes":[{"mesh":0,"translation":[-0.278998703,-0.0454435647,-0.250344187],"scale":[3.27492126e-05,3.27492126e-05,3.27492126e-05]}],"scenes":[{"name":"Sketchfab_Scene","nodes":[0]}],"scene":0}