{"buffers":[{"uri":"scene.bin","byteLength":12314364}],"asset":{"version":"2.0","generator":"gltfpack 0.19","extras":{"author":"CzernO (https://sketchfab.com/czernobog)","license":"CC-BY-4.0 (http://creativecommons.org/licenses/by/4.0/)","source":"https://sketchfab.com/3d-models/cherries-23754527234540959add0b2592876de0","title":"Cherries"}},"extensionsUsed":["KHR_mesh_quantization","KHR_texture_transform","KHR_materials_emissive_strength","KHR_materials_unlit"],"extensionsRequired":["KHR_mesh_quantization"],"bufferViews":[{"buffer":0,"byteOffset":0,"byteLength":1299768,"byteStride":4,"target":34962},{"buffer":0,"byteOffset":1299768,"byteLength":1299768,"byteStride":4,"target":34962},{"buffer":0,"byteOffset":2599536,"byteLength":2599536,"byteStride":8,"target":34962},{"buffer":0,"byteOffset":5199072,"byteLength":1299768,"byteStride":4,"target":34962},{"buffer":0,"byteOffset":6498840,"byteLength":1607076,"target":34963},{"buffer":0,"byteOffset":8105916,"byteLength":4208448,"target":34963}],"accessors":[{"bufferView":0,"byteOffset":0,"componentType":5121,"count":30087,"type":"VEC4","normalized":true},{"bufferView":1,"byteOffset":0,"componentType":5120,"count":30087,"type":"VEC3","normalized":true},{"bufferView":2,"byteOffset":0,"componentType":5123,"count":30087,"type":"VEC3","min":[7401,10715,3651],"max":[16383,15326,5929]},{"bufferView":3,"byteOffset":0,"componentType":5123,"count":30087,"type":"VEC2","normalized":true},{"bufferView":4,"byteOffset":0,"componentType":5123,"count":179424,"type":"SCALAR"},{"bufferView":0,"byteOffset":120348,"componentType":5121,"count":30097,"type":"VEC4","normalized":true},{"bufferView":1,"byteOffset":120348,"componentType":5120,"count":30097,"type":"VEC3","normalized":true},{"bufferView":2,"byteOffset":240696,"componentType":5123,"count":30097,"type":"VEC3","min":[7487,10844,3788],"max":[16287,15192,5783]},{"bufferView":3,"byteOffset":120348,"componentType":5123,"count":30097,"type":"VEC2","normalized":true},{"bufferView":4,"byteOffset":358848,"componentType":5123,"count":179424,"type":"SCALAR"},{"bufferView":0,"byteOffset":240736,"componentType":5121,"count":17157,"type":"VEC4","normalized":true},{"bufferView":1,"byteOffset":240736,"componentType":5120,"count":17157,"type":"VEC3","normalized":true},{"bufferView":2,"byteOffset":481472,"componentType":5123,"count":17157,"type":"VEC3","min":[7441,11423,3998],"max":[15296,14511,5649]},{"bufferView":3,"byteOffset":240736,"componentType":5123,"count":17157,"type":"VEC2","normalized":true},{"bufferView":4,"byteOffset":717696,"componentType":5123,"count":100128,"type":"SCALAR"},{"bufferView":0,"byteOffset":309364,"componentType":5121,"count":16788,"type":"VEC4","normalized":true},{"bufferView":1,"byteOffset":309364,"componentType":5120,"count":16788,"type":"VEC3","normalized":true},{"bufferView":2,"byteOffset":618728,"componentType":5123,"count":16788,"type":"VEC3","min":[3926,5792,3431],"max":[11160,15114,4773]},{"bufferView":3,"byteOffset":309364,"componentType":5123,"count":16788,"type":"VEC2","normalized":true},{"bufferView":4,"byteOffset":917952,"componentType":5123,"count":98400,"type":"SCALAR"},{"bufferView":0,"byteOffset":376516,"componentType":5121,"count":21109,"type":"VEC4","normalized":true},{"bufferView":1,"byteOffset":376516,"componentType":5120,"count":21109,"type":"VEC3","normalized":true},{"bufferView":2,"byteOffset":753032,"componentType":5123,"count":21109,"type":"VEC3","min":[2589,1933,6444],"max":[10871,4574,7991]},{"bufferView":3,"byteOffset":376516,"componentType":5123,"count":21109,"type":"VEC2","normalized":true},{"bufferView":4,"byteOffset":1114752,"componentType":5123,"count":124098,"type":"SCALAR"},{"bufferView":0,"byteOffset":460952,"componentType":5121,"count":22353,"type":"VEC4","normalized":true},{"bufferView":1,"byteOffset":460952,"componentType":5120,"count":22353,"type":"VEC3","normalized":true},{"bufferView":2,"byteOffset":921904,"componentType":5123,"count":22353,"type":"VEC3","min":[7123,263,0],"max":[15187,6914,7997]},{"bufferView":3,"byteOffset":460952,"componentType":5123,"count":22353,"type":"VEC2","normalized":true},{"bufferView":4,"byteOffset":1362948,"componentType":5123,"count":61032,"type":"SCALAR"},{"bufferView":0,"byteOffset":550364,"componentType":5121,"count":10386,"type":"VEC4","normalized":true},{"bufferView":1,"byteOffset":550364,"componentType":5120,"count":10386,"type":"VEC3","normalized":true},{"bufferView":2,"byteOffset":1100728,"componentType":5123,"count":10386,"type":"VEC3","min":[7161,437,174],"max":[15013,6740,7824]},{"bufferView":3,"byteOffset":550364,"componentType":5123,"count":10386,"type":"VEC2","normalized":true},{"bufferView":4,"byteOffset":1485012,"componentType":5123,"count":61032,"type":"SCALAR"},{"bufferView":0,"byteOffset":591908,"componentType":5121,"count":88611,"type":"VEC4","normalized":true},{"bufferView":1,"byteOffset":591908,"componentType":5120,"count":88611,"type":"VEC3","normalized":true},{"bufferView":2,"byteOffset":1183816,"componentType":5123,"count":88611,"type":"VEC3","min":[0,0,279],"max":[8129,6591,7779]},{"bufferView":3,"byteOffset":591908,"componentType":5123,"count":88611,"type":"VEC2","normalized":true},{"bufferView":5,"byteOffset":0,"componentType":5125,"count":526056,"type":"SCALAR"},{"bufferView":0,"byteOffset":946352,"componentType":5121,"count":88354,"type":"VEC4","normalized":true},{"bufferView":1,"byteOffset":946352,"componentType":5120,"count":88354,"type":"VEC3","normalized":true},{"bufferView":2,"byteOffset":1892704,"componentType":5123,"count":88354,"type":"VEC3","min":[184,184,463],"max":[7945,6409,7595]},{"bufferView":3,"byteOffset":946352,"componentType":5123,"count":88354,"type":"VEC2","normalized":true},{"bufferView":5,"byteOffset":2104224,"componentType":5125,"count":526056,"type":"SCALAR"}],"samplers":[{"magFilter":9729,"minFilter":9987}],"images":[{"uri":"textures/defaultMat_baseColor.jpeg"},{"uri":"textures/defaultMat_0_baseColor.jpeg"},{"uri":"textures/defaultMat_1_baseColor.jpeg"},{"uri":"textures/defaultMat_2_baseColor.jpeg"},{"uri":"textures/defaultMat_3_baseColor.jpeg"},{"uri":"textures/defaultMat_4_baseColor.jpeg"},{"uri":"textures/defaultMat_5_baseColor.jpeg"},{"uri":"textures/defaultMat_6_baseColor.jpeg"},{"uri":"textures/defaultMat_7_baseColor.jpeg"}],"textures":[{"sampler":0,"source":0},{"sampler":0,"source":1},{"sampler":0,"source":2},{"sampler":0,"source":3},{"sampler":0,"source":4},{"sampler":0,"source":5},{"sampler":0,"source":6},{"sampler":0,"source":7},{"sampler":0,"source":8}],"materials":[{"name":"defaultMat","pbrMetallicRoughness":{"baseColorTexture":{"index":0,"extensions":{"KHR_texture_transform":{"offset":[0.00194999995,0.00194999995],"scale":[15.9410887,15.9054003]}}},"metallicFactor":0},"emissiveFactor":[0.235918209,0.00317321788,0.0157733858],"doubleSided":true,"extensions":{"KHR_materials_unlit":{}}},{"name":"defaultMat_0","pbrMetallicRoughness":{"baseColorTexture":{"index":1,"extensions":{"KHR_texture_transform":{"offset":[0.00194999995,0.00194999995],"scale":[15.4220896,15.9410887]}}},"metallicFactor":0},"extensions":{"KHR_materials_unlit":{}}},{"name":"defaultMat_1","pbrMetallicRoughness":{"baseColorTexture":{"index":2,"extensions":{"KHR_texture_transform":{"offset":[0.00194999995,0.00194999995],"scale":[15.9410887,15.6245356]}}},"metallicFactor":0},"emissiveFactor":[0.235918209,0.00317321788,0.0157733858],"doubleSided":true,"extensions":{"KHR_materials_unlit":{}}},{"name":"defaultMat_2","pbrMetallicRoughness":{"baseColorTexture":{"index":3,"extensions":{"KHR_texture_transform":{"offset":[0.0474900007,0.0757400021],"scale":[14.3317604,14.411458]}}},"metallicFactor":0},"extensions":{"KHR_materials_unlit":{}}},{"name":"defaultMat_3","pbrMetallicRoughness":{"baseColorTexture":{"index":4,"extensions":{"KHR_texture_transform":{"offset":[0.00194999995,0.00194999995],"scale":[15.6586237,15.9410887]}}},"metallicFactor":0},"doubleSided":true,"extensions":{"KHR_materials_unlit":{}}},{"name":"defaultMat_4","pbrMetallicRoughness":{"baseColorTexture":{"index":5,"extensions":{"KHR_texture_transform":{"offset":[0.00194999995,0.00194999995],"scale":[15.9410887,10.4870396]}}},"metallicFactor":0},"emissiveFactor":[0.0328297056,0.00545782596,0.00506898714],"extensions":{"KHR_materials_emissive_strength":{"emissiveStrength":1.44762349},"KHR_materials_unlit":{}}},{"name":"defaultMat_5","pbrMetallicRoughness":{"baseColorTexture":{"index":6,"extensions":{"KHR_texture_transform":{"offset":[0.00194999995,0.00194999995],"scale":[15.9410887,10.0333357]}}},"metallicFactor":0},"doubleSided":true,"extensions":{"KHR_materials_unlit":{}}},{"name":"defaultMat_6","pbrMetallicRoughness":{"baseColorTexture":{"index":7,"extensions":{"KHR_texture_transform":{"offset":[0.00194999995,0.00194999995],"scale":[15.9226837,15.9410887]}}},"metallicFactor":0},"doubleSided":true,"extensions":{"KHR_materials_unlit":{}}},{"name":"defaultMat_7","pbrMetallicRoughness":{"baseColorTexture":{"index":8,"extensions":{"KHR_texture_transform":{"offset":[0.00194999995,0.00194999995],"scale":[15.9226837,15.9410887]}}},"metallicFactor":0},"extensions":{"KHR_materials_unlit":{}}}],"meshes":[{"primitives":[{"attributes":{"COLOR_0":0,"NORMAL":1,"POSITION":2,"TEXCOORD_0":3},"indices":4,"material":8},{"attributes":{"COLOR_0":5,"NORMAL":6,"POSITION":7,"TEXCOORD_0":8},"indices":9,"material":7},{"attributes":{"COLOR_0":10,"NORMAL":11,"POSITION":12,"TEXCOORD_0":13},"indices":14,"material":6},{"attributes":{"COLOR_0":15,"NORMAL":16,"POSITION":17,"TEXCOORD_0":18},"indices":19,"material":5},{"attributes":{"COLOR_0":20,"NORMAL":21,"POSITION":22,"TEXCOORD_0":23},"indices":24,"material":4},{"attributes":{"COLOR_0":25,"NORMAL":26,"POSITION":27,"TEXCOORD_0":28},"indices":29,"material":3},{"attributes":{"COLOR_0":30,"NORMAL":31,"POSITION":32,"TEXCOORD_0":33},"indices":34,"material":2},{"attributes":{"COLOR_0":35,"NORMAL":36,"POSITION":37,"TEXCOORD_0":38},"indices":39,"material":1},{"attributes":{"COLOR_0":40,"NORMAL":41,"POSITION":42,"TEXCOORD_0":43},"indices":44,"material":0}]}],"nodes":[{"mesh":0,"translation":[-2.23499012,-1.14133787,-1.16303504],"scale":[0.000287393777,0.000287393777,0.000287393777]}],"scenes":[{"name":"Sketchfab_Scene","nodes":[0]}],"scene":0}